<?xml version="1.0" encoding="utf-8"?>
<svg xmlns="http://www.w3.org/2000/svg" xmlns:xlink="http://www.w3.org/1999/xlink" style="margin:auto;background:#ffffff;display:block;z-index:1;position:relative" width="1318" height="669" preserveAspectRatio="xMidYMid" viewBox="0 0 1318 669">
<g transform=""><g transform="translate(1023.498507208906,51.76597614988202) scale(100)" opacity="0.4">
  <path d="M4.474609999999999 0 C4.474609999999999 1.0609899999999999 4.645319443287344 1.456850706838748 4.114824443287344 2.3756949999999994 S3.1561492931612514 3.344630932027886 2.237305 3.875125932027886 S1.06099 4.75139 2.9093872775003714e-16 4.75139 S-1.3184607068387473 4.405620932027887 -2.2373049999999988 3.8751259320278866 S-3.584329443287343 3.294539293161253 -4.114824443287343 2.3756950000000017 S-4.474609999999999 1.0609900000000003 -4.474609999999999 5.479816813932737e-16 S-4.6453194432873435 -1.4568507068387468 -4.114824443287344 -2.3756949999999986 S-3.1561492931612527 -3.3446309320278855 -2.2373050000000014 -3.8751259320278857 S-1.0609900000000008 -4.75139 -8.728161832501113e-16 -4.75139 S1.3184607068387448 -4.405620932027888 2.2373049999999965 -3.8751259320278884 S3.5843294432873423 -3.2945392931612534 4.114824443287342 -2.375695000000002 S4.474609999999999 -1.060990000000001 4.474609999999999 -1.0959633627865474e-15" fill="#ff00ff" stroke-width="0">
    <animateTransform attributeName="transform" type="rotate" dur="10s" repeatCount="indefinite" values="0;60"></animateTransform>
  </path>
</g><g transform="translate(1096.3982086506871,-4.780828620141563) scale(100)" opacity="0.4">
  <path d="M5.3695319999999995 0 C5.3695319999999995 1.2731879999999998 5.574383331944812 1.7482208482064976 4.9377893319448125 2.8508339999999994 S3.787379151793502 4.013557118433464 2.684766 4.650151118433464 S1.2731880000000002 5.701668 3.4912647330004455e-16 5.701668 S-1.5821528482064966 5.286745118433464 -2.6847659999999984 4.650151118433464 S-4.301195331944811 3.953447151793503 -4.937789331944812 2.8508340000000016 S-5.3695319999999995 1.2731880000000004 -5.3695319999999995 6.575780176719285e-16 S-5.574383331944813 -1.7482208482064963 -4.937789331944813 -2.850833999999998 S-3.7873791517935036 -4.013557118433463 -2.684766000000002 -4.650151118433463 S-1.2731880000000009 -5.701668 -1.0473794199001335e-15 -5.701668 S1.582152848206494 -5.286745118433465 2.684765999999996 -4.650151118433466 S4.30119533194481 -3.9534471517935037 4.937789331944811 -2.8508340000000025 S5.3695319999999995 -1.273188000000001 5.3695319999999995 -1.315156035343857e-15" fill="#00c6ff" stroke-width="0">
    <animateTransform attributeName="transform" type="rotate" dur="5s" repeatCount="indefinite" values="0;60"></animateTransform>
  </path>
</g><g transform="translate(1271.357492110962,-140.49316006819822) scale(100)" opacity="0.4">
  <path d="M7.517344799999999 0 C7.517344799999999 1.7824631999999996 7.804136664722736 2.4475091874890964 6.912905064722737 3.991167599999999 S5.3023308125109025 5.618979965806849 3.7586724000000005 6.510211565806849 S1.7824632 7.982335199999999 4.887770626200623e-16 7.982335199999999 S-2.2150139874890957 7.40144316580685 -3.758672399999998 6.51021156580685 S-6.021673464722735 5.534826012510904 -6.912905064722735 3.991167600000002 S-7.517344799999999 1.7824632000000005 -7.517344799999999 9.206092247407e-16 S-7.804136664722737 -2.4475091874890946 -6.912905064722738 -3.991167599999997 S-5.302330812510905 -5.618979965806848 -3.758672400000003 -6.5102115658068485 S-1.7824632000000011 -7.982335199999999 -1.4663311878601869e-15 -7.982335199999999 S2.2150139874890917 -7.4014431658068505 3.7586723999999947 -6.510211565806852 S6.021673464722734 -5.534826012510905 6.912905064722734 -3.991167600000003 S7.517344799999999 -1.7824632000000014 7.517344799999999 -1.8412184494814e-15" fill="#00ffff" stroke-width="0">
    <animateTransform attributeName="transform" type="rotate" dur="3.3333333333333335s" repeatCount="indefinite" values="0;60"></animateTransform>
  </path>
</g></g>
</svg>