<svg height="179" viewBox="0 0 777 179" width="777" xmlns="http://www.w3.org/2000/svg" xmlns:xlink="http://www.w3.org/1999/xlink"><mask id="a" fill="#fff"><path d="m.5692.04712258h245.4308v175.90692742h-245.4308z" fill="#fff" fill-rule="evenodd"/></mask><g fill="none" fill-rule="evenodd" transform="translate(0 1)"><path d="m.5692.04712258c119.181 0 111.457 175.90692742 245.431 175.90692742" mask="url(#a)" stroke="#00a3ff" transform="translate(531)"/><path d="m523 0c112.173494 0 104.903665 177 231 177" stroke="#0a9eff"/><path d="m515 0c105.374795 0 98.545605 177 217 177" stroke="#1498ff"/><path d="m507 0c98.090983 0 91.733872 177 202 177" stroke="#1f93ff"/><path d="m498 0c91.292284 0 85.375812 177 188 177" stroke="#298eff"/><path d="m490 0c84.494586 0 79.017751 177 174 177" stroke="#38f"/><path d="m482 0c77.209774 0 72.206019 177 159 177" stroke="#3d83ff"/><path d="m474 0c70.41156 0 65.848413 177 145 177" stroke="#487eff"/><path d="m465 0c63.613863 0 59.490352 177 131 177" stroke="#5278ff"/><path d="m457 0c56.330048 0 52.67862 177 116 177" stroke="#5c73ff"/><path d="m449 0c49.531351 0 46.32156 177 102 177" stroke="#666dff"/><path d="m441 0c42.247053 0 39.509371 177 87 177" stroke="#7168ff"/><path d="m432 0c35.448839 0 33.150767 177 73 177" stroke="#7b63ff"/><path d="m424 0c28.65014 0 26.792702 177 59 177" stroke="#855dff"/><path d="m416 0c21.366329 0 19.980978 177 44 177" stroke="#8f58ff"/><path d="m407 0c14.56763 0 13.622913 177 30 177" stroke="#9a53ff"/><path d="m399 0c7.770435 0 7.266313 177 16 177" stroke="#a44dff"/><path d="m391 0c.486003 0 .454121 177 1 177" stroke="#ae48ff"/><path d="m380 0c-5.34168 0-4.995888 177-11 177" stroke="#a452fc"/><path d="m369 0c-11.16899 0-10.44444 177-23 177" stroke="#9a5cf8"/><path d="m358 0c-16.995311 0-15.893992 177-35 177" stroke="#8f65f5"/><path d="m348 0c-23.3087 0-21.798119 177-48 177" stroke="#856ff2"/><path d="m337 0c-29.136013 0-27.24767 177-60 177" stroke="#7b79ee"/><path d="m326 0c-34.96381 0-32.697674 177-72 177" stroke="#7183eb"/><path d="m315 0c-40.790123 0-38.146227 177-84 177" stroke="#668de8"/><path d="m304 0c-47.102517 0-44.050357 177-97 177" stroke="#5c97e4"/><path d="m293 0c-52.929831 0-49.498906 177-109 177" stroke="#52a0e1"/><path d="m282 0c-58.75763 0-54.949913 177-121 177" stroke="#48aadd"/><path d="m272 0c-64.584941 0-60.398464 177-133 177" stroke="#3db4da"/><path d="m261 0c-70.411256 0-65.848016 177-145 177" stroke="#33bed7"/><path d="m250 0c-76.724651 0-71.752147 177-158 177" stroke="#29c8d3"/><path d="m239 0c-82.551963 0-77.200697 177-170 177" stroke="#1fd2d0"/><path d="m228 0c-88.378761 0-82.651702 177-182 177" stroke="#14dbcd"/><path d="m217 0c-94.206073 0-88.100254 177-194 177" stroke="#0ae5c9"/><path d="m206.6165.04712258c-100.333 0-93.83 175.90692742-206.617 175.90692742" stroke="#00efc6"/></g></svg>