<svg id="ewz256hc7w21" xmlns="http://www.w3.org/2000/svg" xmlns:xlink="http://www.w3.org/1999/xlink" viewBox="0 0 1116.200000 857.078000" shape-rendering="geometricPrecision" text-rendering="geometricPrecision"><style><![CDATA[#ewz256hc7w2106_to {animation: ewz256hc7w2106_to__to 2000ms linear infinite normal forwards}@keyframes ewz256hc7w2106_to__to { 0% {transform: translate(932.256104px,404.075211px)} 25% {transform: translate(932.256104px,374.080000px)} 50% {transform: translate(932.256104px,404.080000px)} 75% {transform: translate(932.256104px,374.080000px)} 100% {transform: translate(932.256104px,404.080000px)} }]]></style><defs><linearGradient id="ewz256hc7w250-fill" x1="0.499990" y1="1" x2="0.499990" y2="0" spreadMethod="pad" gradientUnits="objectBoundingBox"><stop id="ewz256hc7w250-fill-0" offset="0%" stop-color="rgba(128,128,128,0.25)"/><stop id="ewz256hc7w250-fill-1" offset="54%" stop-color="rgba(128,128,128,0.12)"/><stop id="ewz256hc7w250-fill-2" offset="100%" stop-color="rgba(128,128,128,0.1)"/></linearGradient><linearGradient id="ewz256hc7w268-fill" x1="475.650000" y1="861.710000" x2="475.650000" y2="223.280000" spreadMethod="pad" gradientUnits="objectBoundingBox"><stop id="ewz256hc7w268-fill-0" offset="0%" stop-color="rgba(128,128,128,0.25)"/><stop id="ewz256hc7w268-fill-1" offset="54%" stop-color="rgba(128,128,128,0.12)"/><stop id="ewz256hc7w268-fill-2" offset="100%" stop-color="rgba(128,128,128,0.1)"/></linearGradient></defs><g id="ewz256hc7w22"><rect id="ewz256hc7w23" width="802" height="602" rx="0" ry="0" transform="matrix(1 0 0 1 -1 -1)" fill="none" stroke="none" stroke-width="1"/></g><g id="ewz256hc7w24"><path id="ewz256hc7w25" d="M1089.160000,582.740000C1088.160000,583.470000,1087.240000,584.180000,1086.260000,584.870000C1082.644161,587.427234,1078.858780,589.735882,1074.930000,591.780000C1054.350000,602.630000,1028.980000,607.930000,1004.270000,611.530000C948.850000,619.610000,892.270000,621.180000,835.930000,622.720000C683.700000,626.900000,531.100000,631.070000,379.240000,621.440000C319.240000,617.640000,257.920000,611.280000,203.550000,591.780000Q191.860000,587.600000,180.630000,582.560000C165.480000,575.750000,150.930000,567.460000,138.830000,557.560000C127.460000,548.280000,118.240000,537.620000,112.730000,525.500000C101.240000,500.260000,107.320000,471.910000,120.440000,447.170000C125.889003,437.161355,132.034117,427.547709,138.830000,418.400000C148.960000,404.470000,160.130000,390.940000,170.320000,377.020000C206.580000,327.540000,230.240000,264.940000,196.770000,214.190000C187.150000,199.610000,173.250000,186.810000,165.410000,171.590000C155.410000,152.120000,156.180000,130.500000,159.360000,109.500000Q159.980000,105.500000,160.670000,101.580000C166.100000,70.440000,176.320000,36.890000,207.830000,17.450000C240.560000,-2.750000,287.040000,-1.730000,327.660000,5.450000C390.830000,16.730000,449.100000,40.210000,507.990000,61.410000C566.880000,82.610000,628.490000,101.980000,693.210000,104.060000C750.360000,105.900000,817.020000,92.130000,854.950000,56.340000C891.790000,21.580000,961.040000,18.930000,1010.950000,39.930000C1045.210000,54.340000,1070.770000,80.300000,1081.550000,109.500000C1083.733283,115.362335,1085.304962,121.434581,1086.240000,127.620000C1087.104054,133.272915,1087.385529,138.999598,1087.080000,144.710000C1086.930000,147.530000,1086.640000,150.320000,1086.240000,153.080000C1077.900000,210.700000,1017.870000,256.150000,981.380000,307.620000C963.550000,332.760000,950.960000,362.960000,963.220000,390.070000C981.920000,431.380000,1046.950000,446.070000,1086.220000,476.810000C1093.610014,482.404626,1100.116175,489.079341,1105.520000,496.610000C1124.570000,523.970000,1117.540000,560.920000,1089.160000,582.740000Z" opacity="0.1" fill="rgb(108,99,255)" stroke="none" stroke-width="1"/><g id="ewz256hc7w26"><path id="ewz256hc7w27" d="M257.990000,324.860000C257.990000,324.860000,211.990000,243.340000,142.670000,219.860000C113.580000,210,88.190000,191.460000,70.830000,166.120000C62.611394,154.089043,55.514932,141.328802,49.630000,128" fill="none" stroke="rgb(83,84,97)" stroke-width="2" stroke-miterlimit="10"/><path id="ewz256hc7w28" d="M6.040000,112.910000C13.940000,120.540000,50.720000,128.540000,50.720000,128.540000C50.720000,128.540000,41.720000,92.020000,33.800000,84.350000C25.877374,76.847729,13.394886,77.110824,5.795409,84.940257C-1.804069,92.769690,-1.695047,105.254474,6.040000,112.950000L6.040000,112.910000Z" fill="rgb(108,99,255)" stroke="none" stroke-width="1"/><path id="ewz256hc7w29" d="M26.850000,179C37.640000,181.140000,72.850000,167.810000,72.850000,167.810000C72.850000,167.810000,45.400000,142.050000,34.600000,139.910000C23.923585,138.030020,13.702512,145.028438,11.594271,155.662134C9.486030,166.295830,16.263903,176.664465,26.850000,179Z" fill="rgb(108,99,255)" stroke="none" stroke-width="1"/><path id="ewz256hc7w210" d="M102.600000,250.540000C113,246.940000,136.600000,217.670000,136.600000,217.670000C136.600000,217.670000,99.920000,209.280000,89.530000,212.880000C82.588726,215.036380,77.371830,220.800606,75.916369,227.921904C74.460908,235.043203,76.997717,242.392142,82.536240,247.099160C88.074763,251.806178,95.736595,253.124747,102.530000,250.540000L102.600000,250.540000Z" fill="rgb(108,99,255)" stroke="none" stroke-width="1"/><path id="ewz256hc7w211" d="M172.100000,291.730000C182.960000,289.930000,211.200000,265.080000,211.200000,265.080000C211.200000,265.080000,176.470000,250.610000,165.610000,252.400000C154.749320,254.192164,147.397836,264.449320,149.190000,275.310000C150.982164,286.170680,161.239320,293.522164,172.100000,291.730000Z" fill="rgb(108,99,255)" stroke="none" stroke-width="1"/><path id="ewz256hc7w212" d="M103.490000,139.270000C103.490000,150.270000,83.590000,182.200000,83.590000,182.200000C83.590000,182.200000,63.650000,150.290000,63.640000,139.290000C63.478132,132.065071,67.240015,125.318599,73.471403,121.658598C79.702790,117.998597,87.427210,117.998597,93.658597,121.658598C99.889985,125.318599,103.651868,132.065071,103.490000,139.290000L103.490000,139.270000Z" fill="rgb(108,99,255)" stroke="none" stroke-width="1"/><path id="ewz256hc7w213" d="M184.170000,188.540000C180.880000,199.040000,152.330000,223.540000,152.330000,223.540000C152.330000,223.540000,142.850000,187.090000,146.100000,176.540000C149.729091,166.504187,160.619433,161.107977,170.802803,164.299660C180.986172,167.491342,186.848302,178.138129,184.100000,188.450000L184.170000,188.540000Z" fill="rgb(108,99,255)" stroke="none" stroke-width="1"/><path id="ewz256hc7w214" d="M256.010000,247.090000C254.550000,258,230.550000,286.970000,230.550000,286.970000C230.550000,286.970000,215.050000,252.690000,216.550000,241.780000C218.165892,231.012691,228.123782,223.534913,238.914600,224.985527C249.705419,226.436141,257.334995,236.278209,256.050000,247.090000L256.010000,247.090000Z" fill="rgb(108,99,255)" stroke="none" stroke-width="1"/><path id="ewz256hc7w215" d="M6.040000,112.910000C13.940000,120.540000,50.720000,128.540000,50.720000,128.540000C50.720000,128.540000,41.720000,92.020000,33.800000,84.350000C25.877374,76.847729,13.394886,77.110824,5.795409,84.940257C-1.804069,92.769690,-1.695047,105.254474,6.040000,112.950000L6.040000,112.910000Z" opacity="0.25" fill="rgb(0,0,0)" stroke="none" stroke-width="1"/><path id="ewz256hc7w216" d="M26.850000,179C37.640000,181.140000,72.850000,167.810000,72.850000,167.810000C72.850000,167.810000,45.400000,142.050000,34.600000,139.910000C23.923585,138.030020,13.702512,145.028438,11.594271,155.662134C9.486030,166.295830,16.263903,176.664465,26.850000,179Z" opacity="0.25" fill="rgb(0,0,0)" stroke="none" stroke-width="1"/><path id="ewz256hc7w217" d="M102.600000,250.540000C113,246.940000,136.600000,217.670000,136.600000,217.670000C136.600000,217.670000,99.920000,209.280000,89.530000,212.880000C82.588726,215.036380,77.371830,220.800606,75.916369,227.921904C74.460908,235.043203,76.997717,242.392142,82.536240,247.099160C88.074763,251.806178,95.736595,253.124747,102.530000,250.540000L102.600000,250.540000Z" opacity="0.25" fill="rgb(0,0,0)" stroke="none" stroke-width="1"/><path id="ewz256hc7w218" d="M172.100000,291.730000C182.960000,289.930000,211.200000,265.080000,211.200000,265.080000C211.200000,265.080000,176.470000,250.610000,165.610000,252.400000C154.749320,254.192164,147.397836,264.449320,149.190000,275.310000C150.982164,286.170680,161.239320,293.522164,172.100000,291.730000Z" opacity="0.25" fill="rgb(0,0,0)" stroke="none" stroke-width="1"/><path id="ewz256hc7w219" d="M103.490000,139.270000C103.490000,150.270000,83.590000,182.200000,83.590000,182.200000C83.590000,182.200000,63.650000,150.290000,63.640000,139.290000C63.478132,132.065071,67.240015,125.318599,73.471403,121.658598C79.702790,117.998597,87.427210,117.998597,93.658597,121.658598C99.889985,125.318599,103.651868,132.065071,103.490000,139.290000L103.490000,139.270000Z" opacity="0.25" fill="rgb(0,0,0)" stroke="none" stroke-width="1"/><path id="ewz256hc7w220" d="M184.170000,188.540000C180.880000,199.040000,152.330000,223.540000,152.330000,223.540000C152.330000,223.540000,142.850000,187.090000,146.100000,176.540000C149.729091,166.504187,160.619433,161.107977,170.802803,164.299660C180.986172,167.491342,186.848302,178.138129,184.100000,188.450000L184.170000,188.540000Z" opacity="0.25" fill="rgb(0,0,0)" stroke="none" stroke-width="1"/><path id="ewz256hc7w221" d="M256.010000,247.090000C254.550000,258,230.550000,286.970000,230.550000,286.970000C230.550000,286.970000,215.050000,252.690000,216.550000,241.780000C218.165892,231.012691,228.123782,223.534913,238.914600,224.985527C249.705419,226.436141,257.334995,236.278209,256.050000,247.090000L256.010000,247.090000Z" opacity="0.25" fill="rgb(0,0,0)" stroke="none" stroke-width="1"/><path id="ewz256hc7w222" d="M255.340000,323.240000C255.340000,323.240000,246.340000,230.060000,192.460000,180.500000C169.870000,159.700000,154.170000,132.500000,148.560000,102.260000C145.926697,87.927108,144.614526,73.382764,144.640000,58.810000" fill="none" stroke="rgb(83,84,97)" stroke-width="2" stroke-miterlimit="10"/><path id="ewz256hc7w223" d="M110.890000,27.380000C115.010000,37.590000,145.420000,59.740000,145.420000,59.740000C145.420000,59.740000,151.970000,22.690000,147.860000,12.480000C143.745479,2.262732,132.127268,-2.684521,121.910000,1.430000C111.692732,5.544522,106.745479,17.162732,110.860000,27.380000L110.890000,27.380000Z" fill="rgb(108,99,255)" stroke="none" stroke-width="1"/><path id="ewz256hc7w224" d="M103.100000,96.230000C112.100000,102.560000,149.670000,104.630000,149.670000,104.630000C149.670000,104.630000,135.100000,69.970000,126.100000,63.640000C120.278357,59.531446,112.707050,58.840794,106.238116,61.828208C99.769182,64.815621,95.385407,71.027240,94.738116,78.123208C94.090825,85.219176,97.278357,92.121446,103.100000,96.230000Z" fill="rgb(108,99,255)" stroke="none" stroke-width="1"/><path id="ewz256hc7w225" d="M143.410000,192.310000C154.410000,193.240000,187.850000,176.050000,187.850000,176.050000C187.850000,176.050000,157.720000,153.520000,146.750000,152.600000C139.565023,151.835021,132.528768,155.018790,128.360513,160.920887C124.192259,166.822984,123.544961,174.518845,126.668780,181.034276C129.792599,187.549708,136.198188,191.864068,143.410000,192.310000Z" fill="rgb(108,99,255)" stroke="none" stroke-width="1"/><path id="ewz256hc7w226" d="M190.250000,258.150000C200.910000,260.910000,236.800000,249.630000,236.800000,249.630000C236.800000,249.630000,210.910000,222.330000,200.260000,219.570000C189.682740,217.007459,179.005600,223.403931,176.274886,233.939027C173.544171,244.474122,179.769742,255.251805,190.260000,258.150000L190.250000,258.150000Z" fill="rgb(108,99,255)" stroke="none" stroke-width="1"/><path id="ewz256hc7w227" d="M189.300000,90.970000C184.850000,101.030000,153.710000,122.140000,153.710000,122.140000C153.710000,122.140000,148.410000,84.900000,152.860000,74.830000C155.665031,68.198949,161.828488,63.596346,168.983121,62.789950C176.137754,61.983555,183.171080,65.098755,187.381753,70.939070C191.592426,76.779385,192.325723,84.436697,189.300000,90.970000Z" fill="rgb(108,99,255)" stroke="none" stroke-width="1"/><path id="ewz256hc7w228" d="M243.100000,168.650000C235.840000,176.920000,199.810000,187.750000,199.810000,187.750000C199.810000,187.750000,205.890000,150.630000,213.160000,142.360000C220.419783,134.092297,233.007297,133.275217,241.275000,140.535000C249.542703,147.794783,250.359783,160.382297,243.100000,168.650000Z" fill="rgb(108,99,255)" stroke="none" stroke-width="1"/><path id="ewz256hc7w229" d="M285.100000,251.340000C279.340000,260.720000,245.660000,277.480000,245.660000,277.480000C245.660000,277.480000,245.380000,239.860000,251.140000,230.480000C256.900330,221.091159,269.181159,218.149670,278.570000,223.910000C287.958841,229.670330,290.900330,241.951159,285.140000,251.340000L285.100000,251.340000Z" fill="rgb(108,99,255)" stroke="none" stroke-width="1"/></g><ellipse id="ewz256hc7w230" rx="111.530000" ry="14.520000" transform="matrix(1 0 0 1 408.16000000000003 837.17999999999995)" opacity="0.1" fill="rgb(108,99,255)" stroke="none" stroke-width="1"/><g id="ewz256hc7w231"><ellipse id="ewz256hc7w232" rx="33.880000" ry="5.800000" transform="matrix(1 0 0 1 182.88000000000000 836.05999999999995)" opacity="0.1" fill="rgb(108,99,255)" stroke="none" stroke-width="1"/><path id="ewz256hc7w233" d="M190.240000,771.480000C190.240000,771.480000,195.730000,778.670000,187.700000,789.480000C179.670000,800.290000,173.050000,809.480000,175.700000,816.250000C175.700000,816.250000,187.810000,796.100000,197.700000,795.820000C207.590000,795.540000,201.100000,783.600000,190.240000,771.480000Z" fill="rgb(108,99,255)" stroke="none" stroke-width="1"/><path id="ewz256hc7w234" d="M190.240000,771.480000C190.719559,772.175855,191.096740,772.936952,191.360000,773.740000C200.980000,785.040000,206.110000,795.590000,196.860000,795.850000C188.250000,796.100000,177.910000,811.500000,175.440000,815.390000C175.521568,815.691376,175.618359,815.988423,175.730000,816.280000C175.841641,816.571577,187.840000,796.130000,197.730000,795.850000C207.620000,795.570000,201.100000,783.600000,190.240000,771.480000Z" opacity="0.1" fill="rgb(0,0,0)" stroke="none" stroke-width="1"/><path id="ewz256hc7w235" d="M200.450000,780.640000C200.450000,783.170000,200.170000,785.220000,199.820000,785.220000C199.470000,785.220000,199.180000,783.220000,199.180000,780.640000C199.180000,778.060000,199.540000,779.300000,199.890000,779.300000C200.240000,779.300000,200.450000,778.110000,200.450000,780.640000Z" fill="rgb(255,208,55)" stroke="none" stroke-width="1"/><path id="ewz256hc7w236" d="M203.960000,783.660000C201.740000,784.870000,199.800000,785.600000,199.630000,785.290000C199.460000,784.980000,201.130000,783.750000,203.350000,782.540000C205.570000,781.330000,204.690000,782.210000,204.860000,782.540000C205.030000,782.870000,206.180000,782.450000,203.960000,783.660000Z" fill="rgb(255,208,55)" stroke="none" stroke-width="1"/><path id="ewz256hc7w237" d="M161.220000,771.480000C161.220000,771.480000,155.730000,778.670000,163.760000,789.480000C171.790000,800.290000,178.410000,809.480000,175.760000,816.250000C175.760000,816.250000,163.650000,796.100000,153.760000,795.820000C143.870000,795.540000,150.380000,783.600000,161.220000,771.480000Z" fill="rgb(108,99,255)" stroke="none" stroke-width="1"/><path id="ewz256hc7w238" d="M161.220000,771.480000C160.740441,772.175855,160.363260,772.936952,160.100000,773.740000C150.480000,785.040000,145.350000,795.590000,154.600000,795.850000C163.220000,796.100000,173.550000,811.500000,176.020000,815.390000C175.942988,815.692715,175.846112,815.990026,175.730000,816.280000C175.613888,816.569974,163.620000,796.130000,153.730000,795.850000C143.840000,795.570000,150.380000,783.600000,161.220000,771.480000Z" opacity="0.1" fill="rgb(0,0,0)" stroke="none" stroke-width="1"/><path id="ewz256hc7w239" d="M151.010000,780.640000C151.010000,783.170000,151.290000,785.220000,151.640000,785.220000C151.990000,785.220000,152.280000,783.220000,152.280000,780.640000C152.280000,778.060000,151.920000,779.300000,151.570000,779.300000C151.220000,779.300000,151.010000,778.110000,151.010000,780.640000Z" fill="rgb(255,208,55)" stroke="none" stroke-width="1"/><path id="ewz256hc7w240" d="M147.510000,783.660000C149.730000,784.870000,151.660000,785.600000,151.830000,785.290000C152,784.980000,150.330000,783.750000,148.110000,782.540000C145.890000,781.330000,146.770000,782.210000,146.600000,782.540000C146.430000,782.870000,145.290000,782.450000,147.510000,783.660000Z" fill="rgb(255,208,55)" stroke="none" stroke-width="1"/><path id="ewz256hc7w241" d="M152.760000,815.340000C152.760000,815.340000,168.120000,814.860000,172.760000,811.570000C177.400000,808.280000,196.380000,804.330000,197.530000,809.620000C198.680000,814.910000,220.610000,835.910000,203.270000,836.050000C185.930000,836.190000,162.980000,833.350000,158.360000,830.540000C153.740000,827.730000,152.760000,815.340000,152.760000,815.340000Z" fill="rgb(168,168,168)" stroke="none" stroke-width="1"/><path id="ewz256hc7w242" d="M203.570000,834.210000C186.230000,834.350000,163.280000,831.510000,158.660000,828.700000C155.140000,826.550000,153.740000,818.860000,153.270000,815.320000L152.760000,815.320000C152.760000,815.320000,153.760000,827.700000,158.350000,830.520000C162.940000,833.340000,185.920000,836.170000,203.260000,836.030000C208.260000,836.030000,210,834.210000,209.900000,831.570000C209.210000,833.190000,207.300000,834.180000,203.570000,834.210000Z" opacity="0.2" fill="rgb(0,0,0)" stroke="none" stroke-width="1"/><path id="ewz256hc7w243" d="M665.700000,814.750000C665.700000,814.750000,623.420000,812.200000,628.410000,841.830000C628.410000,841.830000,627.410000,847.060000,632.160000,849.440000C632.160000,849.440000,632.240000,847.250000,636.500000,847.990000C638.015840,848.245297,639.556692,848.319150,641.090000,848.210000C643.166901,848.073204,645.141399,847.258109,646.710000,845.890000L646.710000,845.890000C646.710000,845.890000,658.590000,840.990000,663.210000,821.560000C663.210000,821.560000,666.630000,817.320000,666.500000,816.230000L659.360000,819.230000C659.360000,819.230000,661.800000,824.380000,659.880000,828.660000C659.880000,828.660000,659.650000,819.420000,658.280000,819.660000C658,819.660000,654.570000,821.440000,654.570000,821.440000C654.570000,821.440000,658.770000,830.440000,655.570000,836.920000C655.570000,836.920000,656.770000,825.920000,653.230000,822.090000L648.230000,825.020000C648.230000,825.020000,653.130000,834.280000,649.810000,841.840000C649.810000,841.840000,650.660000,830.250000,647.180000,825.730000L642.630000,829.280000C642.630000,829.280000,647.230000,838.410000,644.420000,844.680000C644.420000,844.680000,644.060000,831.190000,641.640000,830.170000C641.640000,830.170000,637.640000,833.680000,637.050000,835.170000C637.050000,835.170000,640.200000,841.790000,638.250000,845.290000C638.250000,845.290000,637.050000,836.290000,636.060000,836.290000C636.060000,836.290000,632.060000,842.290000,631.680000,846.290000C631.680000,846.290000,631.860000,840.220000,635.100000,835.680000C632.812817,836.115712,630.702929,837.210630,629.030000,838.830000C627.357071,840.449370,629.650000,834.620000,636.030000,834.250000C636.030000,834.250000,639.310000,829.730000,640.190000,829.460000C640.190000,829.460000,633.790000,828.920000,629.910000,830.640000C629.910000,830.640000,633.320000,826.640000,641.360000,828.470000L645.850000,824.810000C645.850000,824.810000,637.430000,823.650000,633.850000,824.930000C633.850000,824.930000,637.970000,821.410000,647.060000,823.930000L651.960000,821.010000C651.960000,821.010000,644.770000,819.460000,640.490000,820.010000C640.490000,820.010000,645.010000,817.570000,653.390000,820.210000L656.890000,818.640000C656.890000,818.640000,651.620000,817.640000,650.080000,817.450000C648.540000,817.260000,648.460000,816.860000,648.460000,816.860000C651.794929,816.303996,655.218743,816.684805,658.350000,817.960000C661.481257,819.235195,665.830000,815.220000,665.700000,814.750000Z" fill="rgb(108,99,255)" stroke="none" stroke-width="1"/><ellipse id="ewz256hc7w244" rx="29.920000" ry="5.060000" transform="matrix(1 0 0 1 636.58000000000004 852.01999999999998)" opacity="0.1" fill="rgb(108,99,255)" stroke="none" stroke-width="1"/><path id="ewz256hc7w245" d="M591.630000,816.330000C591.630000,816.330000,567.790000,814.890000,570.630000,831.600000C570.335871,833.337800,571.190896,835.068017,572.750000,835.890000C574.309104,836.711983,572.750000,834.650000,575.200000,835.070000C576.052539,835.208678,576.917839,835.252278,577.780000,835.200000C578.949787,835.114491,580.061110,834.655238,580.950000,833.890000L580.950000,833.890000C580.950000,833.890000,587.650000,831.120000,590.260000,820.170000C590.260000,820.170000,592.180000,817.780000,592.110000,817.170000L588.110000,818.880000C588.110000,818.880000,589.480000,821.790000,588.400000,824.200000C588.400000,824.200000,588.270000,818.990000,587.500000,819.110000C587.340000,819.110000,585.410000,820.110000,585.410000,820.110000C585.410000,820.110000,587.770000,825.110000,585.990000,828.840000C585.990000,828.840000,586.660000,822.610000,584.670000,820.470000L581.840000,822.130000C581.840000,822.130000,584.600000,827.350000,582.730000,831.610000C582.730000,831.610000,583.210000,825.070000,581.240000,822.530000L578.680000,824.530000C578.680000,824.530000,581.270000,829.680000,579.680000,833.210000C579.680000,833.210000,579.470000,825.600000,578.110000,825.030000C577.136282,825.851069,576.266507,826.788007,575.520000,827.820000C574.773493,828.851993,577.300000,831.560000,576.200000,833.530000C576.200000,833.530000,575.520000,828.460000,574.970000,828.440000C574.970000,828.440000,572.730000,831.800000,572.500000,834.100000C572.601357,831.965980,573.263618,829.896412,574.420000,828.100000C573.131741,828.343735,571.942921,828.959002,571,829.870000C570.057079,830.780998,571.350000,827.490000,575,827.290000C575,827.290000,576.840000,824.740000,577.340000,824.590000C577.340000,824.590000,573.730000,824.280000,571.540000,825.250000C571.540000,825.250000,573.470000,823.010000,578,824.030000L580.530000,821.960000C580.530000,821.960000,575.780000,821.310000,573.770000,822.030000C573.770000,822.030000,576.090000,820.030000,581.220000,821.490000L583.970000,819.850000C581.850613,819.380386,579.678583,819.192098,577.510000,819.290000C575.341417,819.387902,580.060000,817.920000,584.780000,819.400000L586.780000,818.520000C586.780000,818.520000,583.780000,817.930000,582.950000,817.840000C582.120000,817.750000,582.030000,817.510000,582.030000,817.510000C583.911555,817.197030,585.843037,817.411639,587.610000,818.130000C589.376963,818.848361,591.700000,816.600000,591.630000,816.330000Z" fill="rgb(108,99,255)" stroke="none" stroke-width="1"/><ellipse id="ewz256hc7w246" rx="16.870000" ry="2.850000" transform="matrix(1 0 0 1 575.21000000000004 837.35000000000002)" opacity="0.1" fill="rgb(108,99,255)" stroke="none" stroke-width="1"/><path id="ewz256hc7w247" d="M637,780.920000C637,780.920000,608.230000,779.180000,611.620000,799.350000C611.262787,801.448674,612.295856,803.539024,614.180000,804.530000C616.064144,805.520976,614.180000,803.040000,617.130000,803.530000C618.161311,803.694663,619.207649,803.744967,620.250000,803.680000C621.663329,803.578783,623.006395,803.024724,624.080000,802.100000L624.080000,802.100000C624.080000,802.100000,632.170000,798.760000,635.310000,785.530000C635.310000,785.530000,637.640000,782.650000,637.550000,781.910000L632.690000,783.980000C632.690000,783.980000,634.350000,787.490000,633.050000,790.400000C633.050000,790.400000,632.890000,784.110000,631.950000,784.260000C631.770000,784.260000,629.430000,785.470000,629.430000,785.470000C629.430000,785.470000,632.290000,791.580000,630.130000,796.010000C630.130000,796.010000,630.950000,788.490000,628.540000,785.910000L625.120000,787.910000C625.120000,787.910000,628.460000,794.210000,626.200000,799.360000C626.200000,799.360000,626.780000,791.470000,624.400000,788.360000L621.300000,790.770000C621.300000,790.770000,624.440000,796.980000,622.530000,801.250000C622.530000,801.250000,622.280000,792.070000,620.630000,791.370000C620.630000,791.370000,617.920000,793.760000,617.510000,794.740000C617.510000,794.740000,619.660000,799.250000,618.320000,801.630000C618.320000,801.630000,617.510000,795.520000,616.840000,795.490000C616.840000,795.490000,614.140000,799.490000,613.840000,802.320000C613.969014,799.751929,614.768930,797.262535,616.160000,795.100000C614.604295,795.395881,613.168868,796.139662,612.030000,797.240000C610.891132,798.340338,612.450000,794.370000,616.830000,794.120000C616.830000,794.120000,619.060000,791.050000,619.660000,790.860000C619.660000,790.860000,615.300000,790.500000,612.660000,791.670000C612.660000,791.670000,614.980000,788.960000,620.460000,790.190000L623.520000,787.700000C623.520000,787.700000,617.780000,786.910000,615.350000,787.780000C615.350000,787.780000,618.150000,785.390000,624.350000,787.130000L627.680000,785.130000C627.680000,785.130000,622.790000,784.130000,619.880000,784.460000C619.880000,784.460000,622.950000,782.800000,628.660000,784.590000L631.040000,783.530000C631.040000,783.530000,627.450000,782.820000,626.400000,782.710000C625.350000,782.600000,625.300000,782.310000,625.300000,782.310000C627.569512,781.932341,629.899309,782.191976,632.030000,783.060000C634.160691,783.928024,637.100000,781.240000,637,780.920000Z" fill="rgb(108,99,255)" stroke="none" stroke-width="1"/><ellipse id="ewz256hc7w248" rx="20.370000" ry="3.440000" transform="matrix(1 0 0 1 617.19000000000005 806.28999999999996)" opacity="0.1" fill="rgb(108,99,255)" stroke="none" stroke-width="1"/></g><g id="ewz256hc7w249"><path id="ewz256hc7w250" d="M1088.100000,584.670000L1088.100000,95.540000L136.750000,95.540000L136.750000,556.610000C148.900000,566.750000,163.510000,575.280000,178.750000,582.290000Q190.010000,587.480000,201.750000,591.780000L1076.750000,591.780000L1088.100000,584.670000Z" fill="url(#ewz256hc7w250-fill)" stroke="none" stroke-width="1"/><path id="ewz256hc7w251" d="M1086.260000,584.870000L1086.260000,109.540000L138.830000,109.540000L138.830000,557.640000C150.930000,567.500000,165.480000,575.790000,180.630000,582.640000Q191.850000,587.640000,203.550000,591.860000L1074.930000,591.860000L1086.260000,584.870000Z" fill="rgb(255,255,255)" stroke="none" stroke-width="1"/><rect id="ewz256hc7w252" width="947.420000" height="25.140000" rx="0" ry="0" transform="matrix(1 0 0 1 138.84000000000003 96.93000000000001)" fill="rgb(90,87,115)" stroke="none" stroke-width="1"/></g><g id="ewz256hc7w253"><circle id="ewz256hc7w254" r="6.500000" transform="matrix(1 0 0 1 157.75999999999999 109.50000000000000)" fill="rgb(255,255,255)" stroke="none" stroke-width="1"/><circle id="ewz256hc7w255" r="6.500000" transform="matrix(1 0 0 1 175.25999999999999 109.50000000000000)" fill="rgb(255,255,255)" stroke="none" stroke-width="1"/><circle id="ewz256hc7w256" r="6.500000" transform="matrix(1 0 0 1 192.75999999999999 109.50000000000000)" fill="rgb(255,255,255)" stroke="none" stroke-width="1"/></g><g id="ewz256hc7w257"><rect id="ewz256hc7w258" width="156.500000" height="98.340000" rx="0" ry="0" transform="matrix(1 0 0 1 380.94999999999999 177.31999999999999)" fill="rgb(82,75,192)" stroke="none" stroke-width="1"/><rect id="ewz256hc7w259" width="156.500000" height="98.340000" rx="0" ry="0" transform="matrix(0.65000000000000 0 0 0.65000000000000 191.64750074768065 190.29267204260734)" opacity="0.2" fill="rgb(90,87,115)" stroke="none" stroke-width="1"/><rect id="ewz256hc7w260" width="156.500000" height="98.340000" rx="0" ry="0" transform="matrix(0.65000000000000 0 0 0.65000000000000 625.02750512695309 194.52950192260741)" opacity="0.2" fill="rgb(90,87,115)" stroke="none" stroke-width="1"/><rect id="ewz256hc7w261" width="156.500000" height="98.340000" rx="0" ry="0" transform="matrix(0.65000000000000 0 0 0.65000000000000 191.64750074768065 330.88267076086908)" opacity="0.2" fill="rgb(90,87,115)" stroke="none" stroke-width="1"/><rect id="ewz256hc7w262" width="156.500000" height="98.340000" rx="0" ry="0" transform="matrix(0.65000000000000 0 0 0.65000000000000 408.33750427246093 330.88267076086908)" opacity="0.2" fill="rgb(90,87,115)" stroke="none" stroke-width="1"/><rect id="ewz256hc7w263" width="156.500000" height="98.340000" rx="0" ry="0" transform="matrix(0.65000000000000 0 0 0.65000000000000 625.02750512695309 335.11950064086915)" opacity="0.2" fill="rgb(90,87,115)" stroke="none" stroke-width="1"/><rect id="ewz256hc7w264" width="156.500000" height="98.340000" rx="0" ry="0" transform="matrix(0.65000000000000 0 0 0.65000000000000 191.64750074768065 471.46266072058586)" opacity="0.2" fill="rgb(90,87,115)" stroke="none" stroke-width="1"/><rect id="ewz256hc7w265" width="156.500000" height="98.340000" rx="0" ry="0" transform="matrix(0.65000000000000 0 0 0.65000000000000 408.33750427246093 471.46266072058586)" opacity="0.2" fill="rgb(90,87,115)" stroke="none" stroke-width="1"/><rect id="ewz256hc7w266" width="156.500000" height="98.340000" rx="0" ry="0" transform="matrix(0.65000000000000 0 0 0.65000000000000 625.02750512695309 471.46266072058586)" opacity="0.2" fill="rgb(90,87,115)" stroke="none" stroke-width="1"/></g><g id="ewz256hc7w267"><path id="ewz256hc7w268" d="M509.470000,423.740000C509.470000,423.740000,481.360000,372.360000,486.100000,364C490.840000,355.640000,494.330000,343.540000,494.330000,343.540000C494.330000,343.540000,504.710000,336.440000,504.710000,333.540000C504.710000,330.640000,512.930000,323.930000,517.260000,321.010000C521.590000,318.090000,519.420000,304.300000,517.260000,302.630000C515.100000,300.960000,511.670000,295.110000,511.670000,295.110000C511.670000,295.110000,514.670000,286.760000,511.670000,284.250000C508.670000,281.740000,512.110000,279.250000,511.670000,276.730000C511.230000,274.210000,511.670000,265.040000,511.670000,265.040000C508.160000,260.160000,504.270000,257.880000,500.610000,257.040000L500.290000,255.720000L498.440000,247.930000C498.440000,247.930000,507.440000,230.680000,492.840000,221.650000C491.807287,221.003485,490.727601,220.435228,489.610000,219.950000C488.492399,219.464772,489.610000,219.530000,489.530000,218.820000C489.330000,216.240000,488.720000,209.820000,487.410000,205.610000C486.650000,203.190000,485.660000,201.560000,484.410000,201.930000C484.103042,202.018904,483.821858,202.180071,483.590000,202.400000C482.995033,202.939113,482.473861,203.554431,482.040000,204.230000C481.606139,204.905569,482.040000,204.230000,482.040000,204.230000C482.022684,204.270166,481.999051,204.307302,481.970000,204.340000C480.312329,207.315402,479.150446,210.540980,478.530000,213.890000C478.086562,215.870084,477.752721,217.873129,477.530000,219.890000C476.897557,221.091141,476.339831,222.330162,475.860000,223.600000C474.090000,228.190000,472.020000,236.140000,475.790000,242.020000C478.990000,247.020000,483.300000,253.890000,486.430000,258.890000L486.530000,259.050000L486.720000,259.360000L486.390000,259.570000L486.390000,260.340000L486.680000,264.550000L489.100000,300.930000C488.372521,300.719128,487.630520,300.562038,486.880000,300.460000C485.810698,300.303583,484.730554,300.233357,483.650000,300.250000C481.540000,291.960000,475.750000,284.250000,474.650000,275.590000C474.543590,274.723955,474.486831,273.852531,474.480000,272.980000C474.570000,267.530000,475.930000,262.060000,475.820000,256.620000C475.820000,255.620000,475.820000,254.620000,475.720000,253.620000L475.720000,253.620000C475.720000,253.350000,475.670000,253.070000,475.640000,252.790000C474.528876,244.754913,469.526636,237.784701,462.270000,234.160000C459.760000,232.910000,457.040000,232.080000,454.600000,230.710000C448.960000,227.550000,445.350000,221.850000,440.230000,217.940000C436.420000,215.030000,430.730000,213.470000,426.480000,214.940000C424.226852,215.279618,421.993621,215.740284,419.790000,216.320000L419.790000,216.320000C414.418392,217.725612,409.266460,219.865800,404.480000,222.680000C403.830000,223.070000,403.180000,223.470000,402.560000,223.930000C401.206265,224.813412,400.133960,226.066170,399.470000,227.540000C399.040189,228.788939,398.876680,230.114043,398.990000,231.430000C398.990000,232.380000,398.990000,233.350000,399.050000,234.300000C398.770000,250.300000,381.530000,262.680000,380.110000,278.300000C380.110000,278.670000,380.050000,279.040000,380.030000,279.410000C380.030000,279.520000,380.030000,279.630000,380.030000,279.750000C380.030000,280.200000,380.030000,280.660000,380.030000,281.120000L380.030000,281.120000C380.030000,281.330000,380.030000,281.530000,380.030000,281.740000C380.030000,281.950000,380.030000,282.160000,380.030000,282.370000C380.280000,289.220000,383.840000,295.600000,384.490000,302.420000C384.550000,303.030000,384.580000,303.630000,384.590000,304.240000C384.479446,307.373253,383.882312,310.470256,382.820000,313.420000C380.652946,313.997550,378.566723,314.844134,376.610000,315.940000C371.370000,319.310000,361.910000,325.130000,358.460000,336.260000C357.572874,339.149553,357.131139,342.157393,357.150000,345.180000C357.091672,355.860751,356.114738,366.516693,354.230000,377.030000C353.793892,379.678497,353.179156,382.294467,352.390000,384.860000C352.315751,385.109532,352.295301,385.371979,352.330000,385.630000L350.250000,412.630000L349.880000,417.380000L349.360000,424.140000C349.360000,424.140000,349.510000,424.550000,349.730000,425.240000C350.055943,426.265457,350.329628,427.306797,350.550000,428.360000C351.131474,430.648352,351.223479,433.033657,350.820000,435.360000C350.614491,436.348427,350.103805,437.247375,349.360000,437.930000C349.296030,437.986399,349.238966,438.050177,349.190000,438.120000C348.600000,438.950000,348.070000,441.420000,347.610000,445C347.430000,446.400000,347.260000,448,347.090000,449.660000C346.090000,460.310000,345.470000,476.250000,345.090000,489.430000C344.730000,502.430000,344.600000,512.700000,344.600000,512.700000C346.283834,513.786561,348.085315,514.678915,349.970000,515.360000C349.830000,515.710000,349.680000,516.070000,349.540000,516.450000C347.839868,520.862396,346.743296,525.484148,346.280000,530.190000C345.440000,540.020000,348.190000,550.940000,361.900000,556.560000C362.775953,556.924187,363.674485,557.231491,364.590000,557.480000C367.590000,558.280000,369.800000,558.060000,371.430000,557.060000C371.430000,557.650000,371.500000,558.220000,371.530000,558.790000C371.670000,561.230000,371.790000,563.460000,371.850000,565.330000C372.280000,577.030000,375.180000,597.490000,375.180000,597.490000C375.180000,597.490000,376.180000,605.850000,375.310000,608.350000C374.440000,610.850000,375.310000,620.880000,375.310000,620.880000C375.310000,620.880000,378.310000,625.880000,375.310000,628.400000C372.310000,630.920000,371.420000,643.400000,372.310000,645.110000C372.337733,645.169892,372.354660,645.234215,372.360000,645.300000C373.020000,649.450000,369.290000,711.110000,369.290000,711.110000C369.290000,711.110000,365.760000,720.550000,362.950000,730.350000C360.210000,739.890000,358.150000,749.770000,360.690000,751.620000C361.950000,752.540000,364.880000,753.230000,368.600000,753.760000C368.600000,754.170000,368.540000,754.580000,368.500000,755C368.140000,759.410000,367.570000,764.160000,366.750000,765.360000C365.560000,767.060000,364.310000,780.240000,363.700000,787.360000L363.640000,788.150000C362.358969,791.187808,361.283219,794.308150,360.420000,797.490000C359.556781,800.671850,350.850000,821.490000,354.090000,827.720000C354.391743,828.279777,354.795320,828.778315,355.280000,829.190000L355.280000,829.190000C355.375947,829.291199,355.479591,829.384812,355.590000,829.470000C360.200000,833.160000,371.750000,833.930000,375.940000,834.100000L375.780000,840.040000L375.780000,840.260000L381.230000,840.260000L381.230000,840.110000C381.230000,839.360000,381.350000,835.920000,381.530000,831.320000C381.530000,830.500000,381.590000,829.640000,381.630000,828.760000C381.630000,828.070000,381.700000,827.370000,381.730000,826.650000C383.335573,822.383973,384.139061,817.857995,384.100000,813.300000C384.105755,808.069386,384.812034,802.863104,386.200000,797.820000C386.885449,795.222326,387.812837,792.694608,388.970000,790.270000C390.127163,787.845392,390.670000,781.270000,388.300000,774.900000C387.848157,773.635163,387.170509,772.462833,386.300000,771.440000C386.300000,771.230000,386.300000,771.020000,386.300000,770.800000C386.300000,770.580000,386.300000,770.320000,386.300000,770.070000C386.300000,769.820000,386.300000,769.660000,386.300000,769.440000C386.246656,765.132279,386.675999,760.832136,387.580000,756.620000C387.575299,756.553416,387.575299,756.486584,387.580000,756.420000C387.660000,756.070000,387.750000,755.740000,387.840000,755.420000L387.900000,755.200000L389.670000,755.260000C395.100000,755.410000,399.090000,755.410000,399.090000,755.410000C399.090000,755.410000,403.420000,733.270000,402.990000,723.670000C402.990000,723.250000,402.990000,722.810000,402.990000,722.370000C402.840000,712.830000,405.610000,699.860000,405.610000,699.860000L409.100000,666.010000C409.100000,666.010000,407.370000,660.150000,409.100000,656.010000C410.170000,653.430000,412.380000,648.640000,413.920000,645.340000C414.640000,643.810000,415.210000,642.610000,415.450000,642.090000L415.590000,641.810000C415.044655,641.623088,414.526737,641.364129,414.050000,641.040000L414.050000,641.040000C412.640000,640.100000,411.380000,638.260000,415.600000,635.550000C422.090000,631.370000,419.930000,620.930000,419.930000,620.930000C419.930000,620.930000,418.020000,617.170000,420.270000,613.830000C422.520000,610.490000,420.270000,597.960000,420.270000,597.960000C422.123636,594.647523,423.612350,591.143681,424.710000,587.510000C426.320000,582.510000,430.390000,558.060000,432.310000,546.270000C432.940000,542.400000,433.310000,539.900000,433.310000,539.900000L433.370000,540.510000L433.430000,541.170000L433.430000,541.170000L433.970000,546.740000L434.040000,547.480000L435.040000,558.010000C435.040000,558.010000,437.040000,585.690000,435.790000,596.540000C435.790000,596.610000,435.790000,596.680000,435.790000,596.740000C435.692496,597.864011,435.447042,598.970233,435.060000,600.030000C432.760000,605.230000,433.180000,625.890000,433.300000,630.460000C433.300000,630.830000,433.300000,631.130000,433.300000,631.380000C433.300000,631.630000,431.670000,635.460000,432.080000,638.440000L432.080000,638.440000C432.163072,639.195171,432.434738,639.917320,432.870000,640.540000C433.468895,641.512586,433.738872,642.652097,433.640000,643.790000L433.640000,643.890000C433.629430,644.371999,433.589355,644.852899,433.520000,645.330000C433.216688,647.265486,432.707120,649.162957,432,650.990000C431.292880,652.817043,429.680000,657.090000,430.560000,660.280000C430.560000,660.280000,430.560000,660.280000,430.560000,660.280000C430.665711,660.693581,430.860217,661.079181,431.130000,661.410000C431.332990,661.778421,431.446062,662.189590,431.460000,662.610000C431.455291,662.646515,431.455291,662.683485,431.460000,662.720000C432.270000,669.450000,430.180000,699.160000,428.940000,715.420000C428.440000,721.840000,428.080000,726.160000,428.080000,726.160000L424.650000,761.660000L424.990000,761.900000C425.380000,762.180000,426.110000,762.660000,427.090000,763.240000C427.090000,763.240000,427.090000,763.240000,427.090000,763.320000L426.940000,764.390000C426.450000,767.810000,425.790000,771.790000,425.070000,774.830000C425.010000,775.060000,424.960000,775.280000,424.900000,775.490000C423.587686,775.719220,422.337684,776.219902,421.230000,776.960000C413.950000,789.890000,417.170000,800.140000,421.230000,803.120000C422.380000,803.960000,423.160000,806.310000,423.680000,809.230000L424.680000,822.120000C424.680000,822.640000,424.680000,823.120000,424.680000,823.600000C424.681358,824.000839,424.745467,824.398994,424.870000,824.780000L425.180000,828.690000L425.600000,834.130000L428.920000,834.130000L428.920000,827.540000L429.100000,827.540000C434.340000,827.720000,442.790000,827.940000,446.470000,827.650000L446.570000,827.650000C446.960000,827.650000,447.290000,827.580000,447.570000,827.540000C447.769049,827.510115,447.963781,827.456396,448.150000,827.380000C450.100000,826.440000,454.960000,812.660000,450.580000,809.530000C446.200000,806.400000,445.230000,797.530000,445.230000,797.530000C444.850000,796.370000,444.470000,795.270000,444.080000,794.220000C444.080000,793.990000,444.080000,793.770000,444.080000,793.540000C443.960000,789.250000,444.010000,784.600000,444.600000,782.080000C445.260000,779.310000,445.600000,773.490000,445.740000,768.390000C445.740000,768,445.740000,767.620000,445.740000,767.240000L445.740000,767.120000C446.499198,766.928105,447.244291,766.684195,447.970000,766.390000L448.130000,766.320000C449.469497,765.759262,450.724781,765.015515,451.860000,764.110000L464.100000,709.870000L465.390000,703.560000L472.740000,667.670000C472.740000,667.670000,470.150000,655.140000,472.740000,653.060000C473.690000,652.300000,473.950000,649.060000,473.890000,645.310000C473.790000,638.750000,472.740000,630.500000,472.740000,630.500000C472.740000,630.500000,476.200000,625.070000,477.940000,621.730000C479.680000,618.390000,477.940000,609.620000,477.940000,609.620000L481.350000,589.540000C481.350000,589.540000,485.250000,565.730000,494.760000,545.680000C501.760000,530.930000,497.300000,491.100000,492.760000,469.900000C492.640000,469.350000,492.520000,468.810000,492.400000,468.290000L492.400000,468.210000C494.540000,467.150000,497.160000,465.870000,499.960000,464.530000L501.020000,464.030000C504.570000,462.360000,508.330000,460.640000,511.700000,459.210000L511.920000,459.120000C514.345593,458.062175,516.825768,457.134196,519.350000,456.340000C520.093682,456.112581,520.857007,455.955229,521.630000,455.870000C527.640000,455.480000,509.470000,423.740000,509.470000,423.740000ZM374.160000,491.690000L375.960000,491.690000C375.750000,492.080000,375.550000,492.480000,375.350000,492.880000C375.230000,493.120000,375.110000,493.350000,375,493.590000C374.340000,494.960000,373.730000,496.360000,373.230000,497.730000C373.430000,496.250000,373.680000,494.640000,373.960000,492.920000C374.030000,492.540000,374.100000,492.090000,374.160000,491.690000ZM369.300000,517.760000C369.304424,517.713438,369.304424,517.666562,369.300000,517.620000L369.150000,517.150000C369.040000,516.830000,368.940000,516.510000,368.840000,516.150000Q369.770000,515.870000,370.730000,515.520000L370.860000,515.520000C370.860000,515.630000,370.860000,515.740000,370.860000,515.850000C370.810000,516.320000,370.750000,516.790000,370.690000,517.250000L370.690000,517.250000C370.695411,517.309878,370.695411,517.370122,370.690000,517.430000C370.690000,517.810000,370.600000,518.170000,370.560000,518.530000C370.470000,519.250000,370.380000,519.950000,370.300000,520.620000C370.110000,519.990000,369.920000,519.370000,369.720000,518.760000C369.520000,518.430000,369.410000,518.090000,369.300000,517.760000Z" fill="url(#ewz256hc7w268-fill)" stroke="none" stroke-width="1"/><path id="ewz256hc7w269" d="M499.100000,263.460000L488.300000,267.280000L484.380000,260.780000L484.380000,260.210000C484.380000,260.210000,490.570000,255.960000,497.790000,257.560000L499.100000,263.460000Z" opacity="0.1" fill="rgb(0,0,0)" stroke="none" stroke-width="1"/><path id="ewz256hc7w270" d="M392.400000,748.270000C391.033818,750.932416,390.025104,753.763542,389.400000,756.690000C383.246919,756.528526,377.105841,756.057932,371,755.280000C371.340000,750.980000,371.490000,747.020000,371.490000,747.020000C371.490000,747.020000,398.490000,736.880000,392.400000,748.270000Z" opacity="0.1" fill="rgb(0,0,0)" stroke="none" stroke-width="1"/><path id="ewz256hc7w271" d="M445.490000,759.360000C445.490000,759.360000,445.490000,763.660000,445.330000,768.660000C438.170000,770.490000,430.810000,766.830000,427.250000,764.660000C427.810000,760.610000,428.160000,757.350000,428.160000,757.350000L445.490000,759.360000Z" opacity="0.1" fill="rgb(0,0,0)" stroke="none" stroke-width="1"/><path id="ewz256hc7w272" d="M490.520000,471.130000C487.210000,472.830000,484.990000,474,484.990000,474C484.990000,474,438.360000,496.070000,425.100000,494.820000C414.840000,493.820000,388.650000,494.390000,377.240000,494.670000C379.042053,490.898807,381.114109,487.262682,383.440000,483.790000C385.765891,480.317318,482.100000,454.640000,486.240000,457.540000C487.340000,458.330000,488.940000,463.540000,490.520000,471.130000Z" opacity="0.1" fill="rgb(0,0,0)" stroke="none" stroke-width="1"/><path id="ewz256hc7w273" d="M366.540000,383.450000L356.100000,386.360000L353.210000,425.540000C353.210000,425.540000,356.960000,435.950000,353.210000,439.280000C349.460000,442.610000,348.630000,513.810000,348.630000,513.810000C348.630000,513.810000,360.710000,522.550000,374.860000,515.890000C374.860000,515.890000,372.780000,507.980000,379.030000,479.250000C385.280000,450.520000,385.270000,435.950000,385.270000,435.950000C385.270000,435.950000,385.270000,400.140000,388.190000,394.310000C391.110000,388.480000,388.190000,373.910000,388.190000,373.910000C388.190000,373.910000,382.360000,366,382.770000,363.090000C383.180000,360.180000,366.540000,383.450000,366.540000,383.450000Z" opacity="0.1" fill="rgb(0,0,0)" stroke="none" stroke-width="1"/><path id="ewz256hc7w274" d="M371.530000,518.190000C365.398934,520.254209,358.725625,520.012449,352.760000,517.510000C353.519395,515.376510,354.411127,513.292464,355.430000,511.270000L366.750000,504.400000C366.750000,504.400000,369.100000,510.290000,371.530000,518.190000Z" opacity="0.1" fill="rgb(0,0,0)" stroke="none" stroke-width="1"/><path id="ewz256hc7w275" d="M472.500000,389.690000C472.500000,389.690000,467.090000,436.320000,451.260000,445.070000C451.260000,445.070000,486.650000,435.080000,472.500000,389.690000Z" opacity="0.1" fill="rgb(0,0,0)" stroke="none" stroke-width="1"/><path id="ewz256hc7w276" d="M392.980000,393.860000C392.980000,393.860000,412.540000,403.430000,407.980000,410.090000C403.420000,416.750000,392.980000,393.860000,392.980000,393.860000Z" opacity="0.1" fill="rgb(0,0,0)" stroke="none" stroke-width="1"/><path id="ewz256hc7w277" d="M392.980000,413.010000C392.980000,413.010000,405.470000,425.920000,402.980000,430.500000C400.490000,435.080000,392.980000,413.010000,392.980000,413.010000Z" opacity="0.1" fill="rgb(0,0,0)" stroke="none" stroke-width="1"/><path id="ewz256hc7w278" d="M493.730000,306.010000C493.730000,306.010000,498.630000,314.330000,499.100000,319.750000C499.570000,325.170000,493.730000,306.010000,493.730000,306.010000Z" opacity="0.1" fill="rgb(0,0,0)" stroke="none" stroke-width="1"/><path id="ewz256hc7w279" d="M493.730000,294.770000C493.730000,294.770000,496.190000,292.680000,502.470000,294.770000C508.750000,296.860000,493.730000,294.770000,493.730000,294.770000Z" opacity="0.1" fill="rgb(0,0,0)" stroke="none" stroke-width="1"/><path id="ewz256hc7w280" d="M469.690000,538.120000C459.373979,539.583473,448.854202,538.236113,439.240000,534.220000L433.990000,547.660000L433.410000,541.440000C434.270000,536.220000,435.940000,530.630000,439.240000,529.220000C439.240000,529.220000,450.800000,538.430000,469.690000,538.120000Z" opacity="0.1" fill="rgb(0,0,0)" stroke="none" stroke-width="1"/><path id="ewz256hc7w281" d="M384.280000,555.610000C384.280000,555.610000,409.890000,560.920000,417.070000,559.980000L384.280000,555.610000Z" opacity="0.1" fill="rgb(0,0,0)" stroke="none" stroke-width="1"/><path id="ewz256hc7w282" d="M386.940000,562.320000C386.940000,562.320000,397.870000,561.850000,403.330000,564.040000L386.940000,562.320000Z" opacity="0.1" fill="rgb(0,0,0)" stroke="none" stroke-width="1"/><path id="ewz256hc7w283" d="M388.190000,566.850000C393.176961,567.909466,398.238993,568.578163,403.330000,568.850000L388.190000,566.850000Z" opacity="0.1" fill="rgb(0,0,0)" stroke="none" stroke-width="1"/><path id="ewz256hc7w284" d="M387.560000,624.150000C388.030000,623.840000,409.420000,618.840000,412.080000,622.430000L387.560000,624.150000Z" opacity="0.1" fill="rgb(0,0,0)" stroke="none" stroke-width="1"/><path id="ewz256hc7w285" d="M387.560000,630.710000C387.560000,630.710000,406.140000,628.520000,406.610000,630.710000C407.080000,632.900000,387.560000,630.710000,387.560000,630.710000Z" opacity="0.1" fill="rgb(0,0,0)" stroke="none" stroke-width="1"/><path id="ewz256hc7w286" d="M387.560000,636.640000C387.560000,636.640000,407.390000,632.540000,409.730000,633.540000C412.070000,634.540000,387.560000,636.640000,387.560000,636.640000Z" opacity="0.1" fill="rgb(0,0,0)" stroke="none" stroke-width="1"/><path id="ewz256hc7w287" d="M388.500000,776.540000L366.020000,792C366.020000,792,366.150000,790.190000,366.370000,787.530000C371.370000,775.230000,377.880000,768.740000,377.880000,768.740000C382.950000,767.420000,386.150000,768.640000,388.140000,771.030000C388.220000,774.350000,388.500000,776.540000,388.500000,776.540000Z" opacity="0.1" fill="rgb(0,0,0)" stroke="none" stroke-width="1"/><path id="ewz256hc7w288" d="M381.240000,831.890000C380.771114,832.682122,380.242938,833.437614,379.660000,834.150000C379.077062,834.862386,364.040000,834.020000,358.570000,829.490000C361.260000,820.590000,369.840000,793.660000,373.860000,798.240000C377.640000,802.540000,380.270000,823.230000,381.240000,831.890000Z" opacity="0.1" fill="rgb(0,0,0)" stroke="none" stroke-width="1"/><path id="ewz256hc7w289" d="M444.240000,803.230000C444.240000,803.230000,421.290000,781.530000,423.630000,779.810000C424.260000,779.350000,424.880000,777.500000,425.450000,775.040000C429.860000,774.270000,437.450000,776.110000,443.730000,793.730000C443.880000,798.730000,444.240000,803.230000,444.240000,803.230000Z" opacity="0.1" fill="rgb(0,0,0)" stroke="none" stroke-width="1"/><path id="ewz256hc7w290" d="M447.100000,827.590000C444.400000,828.060000,434.450000,827.790000,428.880000,827.590000C426.758802,827.519977,425.074231,825.782349,425.070000,823.660000C425.070000,822.160000,425.070000,820.330000,424.950000,818.380000C426.640000,810.920000,429.070000,803.240000,432.200000,801.490000C432.220000,801.480000,441.690000,800.410000,447.100000,827.590000Z" opacity="0.1" fill="rgb(0,0,0)" stroke="none" stroke-width="1"/><path id="ewz256hc7w291" d="M431.280000,217.680000C422.208663,218.355255,413.427547,221.176043,405.660000,225.910000C403.660000,227.120000,401.660000,228.590000,400.830000,230.760000C400.110000,232.640000,400.410000,234.760000,400.440000,236.760000C400.710000,253.980000,381.510000,267.010000,382.110000,284.220000C382.350000,291.050000,385.780000,297.410000,386.410000,304.220000C387.460000,315.580000,380.740000,326.030000,374.300000,335.440000C380.934798,335.843778,387.470298,333.677215,392.550000,329.390000C399.345371,352.040265,400.223293,376.053999,395.100000,399.140000L404.310000,399.140000C405.219602,399.073713,406.133393,399.185813,407,399.470000C407.808227,399.853817,408.532220,400.394263,409.130000,401.060000C417.740000,409.630000,423.510000,422.300000,420.220000,434L439.820000,426.650000C444.510000,424.890000,449.270000,423.100000,453.350000,420.200000C457.430000,417.300000,460.850000,413.090000,461.710000,408.150000C462.240000,405.150000,462.070000,401.570000,464.540000,399.830000C465.756876,399.182745,467.055138,398.701783,468.400000,398.400000C473.780000,396.500000,476.160000,390.280000,477.260000,384.680000C478.599435,377.809435,479.019782,370.791323,478.510000,363.810000C477.640000,352.110000,474.180000,340.230000,477.030000,328.810000C478.640000,322.400000,482.220000,316.430000,482.510000,309.810000C482.980000,298.900000,474.450000,289.500000,473.180000,278.650000C472.290000,271.090000,475.020000,263.440000,474.130000,255.880000C473.127143,247.960782,468.323134,241.029123,461.260000,237.310000C458.850000,236.070000,456.260000,235.240000,453.880000,233.870000C448.450000,230.720000,444.980000,225.050000,440.050000,221.150000C435.120000,217.250000,426.910000,215.780000,423.200000,220.850000L431.280000,217.680000Z" opacity="0.1" fill="rgb(0,0,0)" stroke="none" stroke-width="1"/><g id="ewz256hc7w292" opacity="0.1"><path id="ewz256hc7w293" d="M400.420000,231.350000C400.379805,231.735357,400.359778,232.122552,400.360000,232.510000C400.390000,232.130000,400.410000,231.740000,400.420000,231.350000Z" fill="rgb(0,0,0)" stroke="none" stroke-width="1"/><path id="ewz256hc7w294" d="M473.100000,271.380000C473.460000,266.080000,474.640000,260.760000,474.200000,255.480000C473.870000,260.780000,472.690000,266.100000,473.100000,271.380000Z" fill="rgb(0,0,0)" stroke="none" stroke-width="1"/><path id="ewz256hc7w295" d="M386.410000,297.730000C385.830000,291.530000,382.940000,285.730000,382.260000,279.540000C382.124368,280.674630,382.074226,281.817852,382.110000,282.960000C382.350000,289.710000,385.700000,296.020000,386.380000,302.740000C386.545255,301.074539,386.555298,299.397320,386.410000,297.730000Z" fill="rgb(0,0,0)" stroke="none" stroke-width="1"/><path id="ewz256hc7w296" d="M477.100000,322.360000C476.163730,326.429229,475.826841,330.613393,476.100000,334.780000C476.199683,332.350010,476.534581,329.935395,477.100000,327.570000C478.710000,321.160000,482.290000,315.190000,482.580000,308.570000C482.627249,307.394251,482.573720,306.216614,482.420000,305.050000C481.640000,311,478.530000,316.540000,477.100000,322.360000Z" fill="rgb(0,0,0)" stroke="none" stroke-width="1"/><path id="ewz256hc7w297" d="M392.550000,322.900000C388.379141,326.395362,383.216668,328.493928,377.790000,328.900000C376.650000,330.680000,375.470000,332.420000,374.300000,334.140000C380.932905,334.529316,387.463177,332.364486,392.550000,328.090000C396.203101,340.246262,398.161566,352.848411,398.370000,365.540000C398.666677,351.110062,396.702911,336.722607,392.550000,322.900000Z" fill="rgb(0,0,0)" stroke="none" stroke-width="1"/><path id="ewz256hc7w298" d="M477.290000,378.190000C476.190000,383.790000,473.810000,390.010000,468.430000,391.900000C467.083226,392.200178,465.784311,392.684748,464.570000,393.340000C462.100000,395.080000,462.270000,398.680000,461.740000,401.660000C460.880000,406.600000,457.470000,410.800000,453.380000,413.660000C449.290000,416.520000,444.540000,418.360000,439.850000,420.120000L421.150000,427.120000C421.053000,428.997254,420.751210,430.858294,420.250000,432.670000L439.850000,425.320000C444.540000,423.560000,449.300000,421.770000,453.380000,418.870000C457.460000,415.970000,460.880000,411.760000,461.740000,406.820000C462.270000,403.820000,462.100000,400.240000,464.570000,398.500000C465.786876,397.852745,467.085138,397.371783,468.430000,397.070000C473.810000,395.170000,476.190000,388.950000,477.290000,383.350000C478.428585,377.522408,478.901617,371.584354,478.700000,365.650000C478.568144,369.861127,478.096613,374.054743,477.290000,378.190000Z" fill="rgb(0,0,0)" stroke="none" stroke-width="1"/><path id="ewz256hc7w299" d="M409.160000,394.540000C408.564985,393.871243,407.840337,393.330308,407.030000,392.950000C406.163226,392.666132,405.250145,392.550724,404.340000,392.610000L396.170000,392.610000C395.850000,394.350000,395.510000,396.090000,395.170000,397.820000L404.380000,397.820000C405.290256,397.756932,406.204062,397.872431,407.070000,398.160000C407.879877,398.536644,408.604594,399.074228,409.200000,399.740000C415.500000,406.020000,420.270000,414.480000,421.090000,423.160000C422.100000,412.780000,416.720000,402.100000,409.160000,394.540000Z" fill="rgb(0,0,0)" stroke="none" stroke-width="1"/></g><path id="ewz256hc7w2100" d="M363.470000,428.620000C363.470000,428.620000,370.910000,425.500000,372.570000,428.620000C374.230000,431.740000,363.470000,428.620000,363.470000,428.620000Z" opacity="0.1" fill="rgb(0,0,0)" stroke="none" stroke-width="1"/><path id="ewz256hc7w2101" d="M366.100000,433.970000C366.100000,433.970000,373.540000,430.850000,375.210000,433.970000C376.880000,437.090000,366.100000,433.970000,366.100000,433.970000Z" opacity="0.1" fill="rgb(0,0,0)" stroke="none" stroke-width="1"/></g><g id="ewz256hc7w2102"><path id="ewz256hc7w2103" d="M827.210000,30.220000C827.210000,30.220000,789.160000,27.930000,793.650000,54.590000C793.650000,54.590000,792.760000,59.300000,797.030000,61.440000C797.030000,61.440000,797.100000,59.440000,800.930000,60.130000C802.293936,60.359547,803.680266,60.426682,805.060000,60.330000C806.922828,60.201012,808.692555,59.467137,810.100000,58.240000L810.100000,58.240000C810.100000,58.240000,820.790000,53.830000,824.950000,36.350000C824.950000,36.350000,828.030000,32.530000,827.950000,31.550000L821.530000,34.300000C821.530000,34.300000,823.720000,38.930000,821.990000,42.780000C821.990000,42.780000,821.790000,34.460000,820.550000,34.660000C820.300000,34.660000,817.220000,36.260000,817.220000,36.260000C817.220000,36.260000,820.990000,44.330000,818.140000,50.200000C818.140000,50.200000,819.220000,40.260000,816.040000,36.850000L811.500000,39.540000C811.500000,39.540000,815.910000,47.870000,812.920000,54.670000C812.920000,54.670000,813.690000,44.240000,810.550000,40.180000L806.450000,43.370000C806.450000,43.370000,810.600000,51.540000,808.100000,57.180000C808.100000,57.180000,807.770000,45.030000,805.590000,44.120000C805.590000,44.120000,802.010000,47.280000,801.470000,48.580000C801.470000,48.580000,804.300000,54.580000,802.540000,57.680000C802.540000,57.680000,801.460000,49.600000,800.540000,49.560000C800.540000,49.560000,796.970000,54.920000,796.600000,58.560000C796.773478,55.163501,797.831794,51.871346,799.670000,49.010000C797.610561,49.399838,795.711551,50.387601,794.210000,51.850000C792.708449,53.312399,794.760000,48.060000,800.550000,47.720000C800.550000,47.720000,803.500000,43.660000,804.290000,43.410000C804.290000,43.410000,798.530000,42.930000,795.040000,44.480000C795.040000,44.480000,798.110000,40.900000,805.350000,42.480000L809.350000,39.180000C809.350000,39.180000,801.770000,38.180000,798.550000,39.290000C798.550000,39.290000,802.250000,36.130000,810.440000,38.430000L814.840000,35.800000C814.840000,35.800000,808.380000,34.400000,804.530000,34.910000C804.530000,34.910000,808.590000,32.720000,816.130000,35.090000L819.280000,33.680000C819.280000,33.680000,814.540000,32.750000,813.160000,32.600000C811.780000,32.450000,811.700000,32.070000,811.700000,32.070000C814.698688,31.570911,817.777127,31.917192,820.590000,33.070000C823.402873,34.222808,827.320000,30.640000,827.210000,30.220000Z" opacity="0.1" fill="rgb(108,99,255)" stroke="none" stroke-width="1"/><path id="ewz256hc7w2104" d="M772.980000,8.600000C772.980000,8.600000,740.980000,29.310000,760.390000,48.120000C760.390000,48.120000,762.460000,52.440000,767.170000,51.640000C767.170000,51.640000,766.050000,50,769.540000,48.270000C770.777246,47.647045,771.935483,46.878244,772.990000,45.980000C774.415050,44.771628,775.408358,43.132493,775.820000,41.310000L775.820000,41.310000C775.820000,41.310000,781.820000,31.410000,774.820000,14.870000C774.820000,14.870000,775.040000,9.970000,774.360000,9.250000L770.820000,15.250000C770.820000,15.250000,775.330000,17.680000,776.220000,21.800000C776.220000,21.800000,771.130000,15.230000,770.220000,16.120000C770.040000,16.300000,768.480000,19.390000,768.480000,19.390000C768.480000,19.390000,776.310000,23.650000,777.480000,30.060000C777.480000,30.060000,772.480000,21.410000,767.870000,20.560000L765.790000,25.360000C765.790000,25.360000,774.290000,29.460000,775.910000,36.710000C775.910000,36.710000,770.340000,27.850000,765.410000,26.440000L764.010000,31.440000C764.010000,31.440000,772.210000,35.600000,773.520000,41.640000C773.520000,41.640000,766.060000,32.060000,763.760000,32.640000C763.760000,32.640000,762.760000,37.300000,763.080000,38.640000C763.080000,38.640000,768.900000,41.760000,769.340000,45.340000C769.340000,45.340000,763.680000,39.470000,762.950000,39.960000C762.950000,39.960000,763.250000,46.390000,765.120000,49.570000C763.250385,46.730790,762.154254,43.452737,761.940000,40.060000C760.512370,41.593959,759.566582,43.513351,759.220000,45.580000C758.873418,47.646649,757.420000,42.200000,761.890000,38.500000C761.890000,38.500000,761.890000,33.500000,762.340000,32.810000C762.340000,32.810000,757.420000,35.810000,755.520000,39.150000C755.520000,39.150000,755.880000,34.450000,762.670000,31.470000L763.970000,26.420000C763.970000,26.420000,757.250000,30.080000,755.340000,32.910000C755.340000,32.910000,756.450000,28.170000,764.400000,25.170000L766.400000,20.440000C766.400000,20.440000,760.400000,23.150000,757.560000,25.840000C757.560000,25.840000,759.560000,21.660000,767.020000,19.110000L768.720000,16.110000C768.720000,16.110000,764.350000,18.170000,763.150000,18.870000C761.950000,19.570000,761.660000,19.310000,761.660000,19.310000C763.778807,17.130116,766.462118,15.582451,769.410000,14.840000C772.357882,14.097549,773.320000,8.880000,772.980000,8.600000Z" opacity="0.1" fill="rgb(108,99,255)" stroke="none" stroke-width="1"/><path id="ewz256hc7w2105" d="M724.280000,32.730000C724.280000,32.730000,705.150000,65.730000,730.980000,73.660000C730.980000,73.660000,734.790000,76.570000,738.620000,73.660000C738.620000,73.660000,736.890000,72.720000,739.210000,69.590000C740.015954,68.472849,740.687262,67.264493,741.210000,65.990000C741.932787,64.265556,742.076654,62.353173,741.620000,60.540000L741.620000,60.540000C741.620000,60.540000,742.470000,49,728.720000,37.430000C728.720000,37.430000,726.720000,32.970000,725.720000,32.640000L725.290000,39.640000C725.290000,39.640000,730.410000,39.760000,733.080000,43.030000C733.080000,43.030000,725.560000,39.480000,725.180000,40.670000C725.100000,40.910000,725.110000,44.370000,725.110000,44.370000C725.110000,44.370000,734.100000,44.640000,738.100000,49.820000C738.100000,49.820000,729.700000,44.390000,725.230000,45.710000L725.550000,50.930000C725.550000,50.930000,734.980000,50.730000,739.710000,56.460000C739.710000,56.460000,730.710000,51.090000,725.710000,52.070000L726.710000,57.160000C726.710000,57.160000,735.910000,57.160000,739.810000,61.940000C739.810000,61.940000,728.810000,56.780000,727.020000,58.310000C727.020000,58.310000,728.230000,62.930000,729.150000,64C729.150000,64,735.750000,64.140000,737.770000,67.130000C737.770000,67.130000,730.060000,64.460000,729.630000,65.240000C729.630000,65.240000,732.820000,70.830000,735.930000,72.810000C732.979227,71.137163,730.515014,68.724648,728.780000,65.810000C728.204797,67.823729,728.232611,69.961914,728.860000,71.960000C729.487389,73.958086,725.720000,69.770000,728.020000,64.440000C728.020000,64.440000,725.720000,59.980000,725.850000,59.170000C725.850000,59.170000,722.850000,64.100000,722.650000,67.910000C722.650000,67.910000,720.830000,63.560000,725.530000,57.830000L724.400000,52.730000C724.400000,52.730000,720.070000,59.040000,719.650000,62.430000C719.650000,62.430000,718.490000,57.700000,724.220000,51.430000L723.840000,46.320000C723.840000,46.320000,719.700000,51.470000,718.420000,55.140000C718.420000,55.140000,718.280000,50.520000,723.790000,44.850000L723.940000,41.400000C723.940000,41.400000,720.940000,45.210000,720.230000,46.400000C719.520000,47.590000,719.100000,47.420000,719.100000,47.420000C720.001246,44.513727,721.690450,41.914153,723.980000,39.910000C726.269550,37.905847,724.700000,32.820000,724.280000,32.730000Z" opacity="0.1" fill="rgb(108,99,255)" stroke="none" stroke-width="1"/></g><g id="ewz256hc7w2106_to" transform="translate(932.256104,404.075211)"><g id="ewz256hc7w2106" transform="translate(-932.256104,-404.075211)"><path id="ewz256hc7w2107" d="M902.530000,445.910000C896.742145,445.910000,891.524200,449.396520,889.309284,454.743800C887.094368,460.091081,888.318671,466.246067,892.411302,470.338698C896.503933,474.431329,902.658919,475.655632,908.006200,473.440716C913.353480,471.225800,916.840000,466.007855,916.840000,460.220000C916.818026,452.325925,910.424075,445.931974,902.530000,445.910000ZM860.690000,333.620000L860.690000,347.930000L875,347.930000L900.760000,400.110000L889.990000,417.640000C888.814472,419.713385,888.197665,422.056560,888.200000,424.440000C888.200000,434.020000,894.750000,438.750000,903.630000,438.750000L987.300000,438.750000L987.300000,424.990000L905.380000,424.990000C904.896809,425.019547,904.424145,424.840467,904.081839,424.498161C903.739533,424.155855,903.560453,423.683191,903.590000,423.200000C903.778613,422.581073,904.033419,421.984289,904.350000,421.420000L911.500000,410.130000L964.810000,410.130000C970.061593,410.173109,974.895606,407.273474,977.330000,402.620000L1003.100000,358.310000C1003.602469,357.184811,1003.848407,355.961957,1003.820000,354.730000C1003.799913,352.869667,1003.027272,351.096772,1001.678265,349.815592C1000.329258,348.534412,998.518896,347.854176,996.660000,347.930000L890.750000,347.930000L883.950000,333.620000L860.690000,333.620000ZM972.980000,445.910000C965.078109,445.915522,958.676321,452.324770,958.680002,460.226662C958.683682,468.128554,965.091439,474.531835,972.993331,474.529996C980.895223,474.528157,987.299998,468.121893,987.300000,460.220000C987.278002,452.322034,980.877980,445.926481,972.980000,445.910000Z" fill="rgb(82,75,192)" stroke="none" stroke-width="1"/><polygon id="ewz256hc7w2108" points="957.669983,374.209991 945.669983,374.209991 945.669983,362.209991 936.669983,362.209991 936.669983,374.209991 924.669983,374.209991 924.669983,383.209991 936.669983,383.209991 936.669983,395.209991 945.669983,395.209991 945.669983,383.209991 957.669983,383.209991 957.669983,374.209991" fill="rgb(255,255,255)" stroke="none" stroke-width="1"/></g></g><text id="ewz256hc7w2109" dx="0" dy="0" font-family="&quot;Nunito Black&quot;" font-size="30" transform="matrix(1.60169000000000 0 0 1.61905000000000 799.04309000000012 254.87831718750002)" fill="rgb(82,75,192)" stroke="none" stroke-width="0"><![CDATA[ALE-JIMLA]]></text></g></svg>