<svg id="e9tj3w9yvf2n1" xmlns="http://www.w3.org/2000/svg" xmlns:xlink="http://www.w3.org/1999/xlink" viewBox="0 0 1144 800.930000" shape-rendering="geometricPrecision" text-rendering="geometricPrecision"><style><![CDATA[#e9tj3w9yvf2n36_to {animation: e9tj3w9yvf2n36_to__to 3000ms linear infinite normal forwards}@keyframes e9tj3w9yvf2n36_to__to { 0% {transform: translate(482.654973px,856.330672px)} 26.666667% {transform: translate(662.170000px,549.564157px)} 60% {transform: translate(817.246948px,310.233417px)} 100% {transform: translate(1018.753052px,-20.439883px)} }#e9tj3w9yvf2n51_ts {animation: e9tj3w9yvf2n51_ts__ts 3000ms linear infinite normal forwards}@keyframes e9tj3w9yvf2n51_ts__ts { 0% {transform: translate(815px,77px) scale(1.500000,1.500000)} 10% {transform: translate(815px,77px) scale(2,2)} 20% {transform: translate(815px,77px) scale(1.500000,1.500000)} 30% {transform: translate(815px,77px) scale(1,1)} 40% {transform: translate(815px,77px) scale(0.500000,0.500000)} 46.666667% {transform: translate(815px,77px) scale(1,1)} 56.666667% {transform: translate(815px,77px) scale(1.500000,1.500000)} 66.666667% {transform: translate(815px,77px) scale(2,2)} 76.666667% {transform: translate(815px,77px) scale(3,3)} 83.333333% {transform: translate(815px,77px) scale(2,2)} 93.333333% {transform: translate(815px,77px) scale(1,1)} 100% {transform: translate(815px,77px) scale(0.500000,0.500000)} }#e9tj3w9yvf2n52_ts {animation: e9tj3w9yvf2n52_ts__ts 3000ms linear infinite normal forwards}@keyframes e9tj3w9yvf2n52_ts__ts { 0% {transform: translate(960px,12px) scale(1.500000,1.500000);animation-timing-function: step-end} 10% {transform: translate(960px,12px) scale(2,2);animation-timing-function: step-end} 20% {transform: translate(960px,12px) scale(1.500000,1.500000);animation-timing-function: step-end} 30% {transform: translate(960px,12px) scale(1,1);animation-timing-function: step-end} 40% {transform: translate(960px,12px) scale(0.500000,0.500000);animation-timing-function: step-end} 46.666667% {transform: translate(960px,12px) scale(1,1);animation-timing-function: step-end} 56.666667% {transform: translate(960px,12px) scale(1.500000,1.500000);animation-timing-function: step-end} 66.666667% {transform: translate(960px,12px) scale(2,2);animation-timing-function: step-end} 76.666667% {transform: translate(960px,12px) scale(3,3);animation-timing-function: step-end} 83.333333% {transform: translate(960px,12px) scale(2,2);animation-timing-function: step-end} 93.333333% {transform: translate(960px,12px) scale(1,1);animation-timing-function: step-end} 100% {transform: translate(960px,12px) scale(0.500000,0.500000)} }#e9tj3w9yvf2n53_ts {animation: e9tj3w9yvf2n53_ts__ts 3000ms linear infinite normal forwards}@keyframes e9tj3w9yvf2n53_ts__ts { 0% {transform: translate(972px,89px) scale(1.500000,1.500000)} 10% {transform: translate(972px,89px) scale(2,2)} 20% {transform: translate(972px,89px) scale(1.500000,1.500000)} 30% {transform: translate(972px,89px) scale(1,1)} 40% {transform: translate(972px,89px) scale(0.500000,0.500000)} 46.666667% {transform: translate(972px,89px) scale(1,1)} 56.666667% {transform: translate(972px,89px) scale(1.500000,1.500000)} 66.666667% {transform: translate(972px,89px) scale(2,2)} 76.666667% {transform: translate(972px,89px) scale(3,3)} 83.333333% {transform: translate(972px,89px) scale(2,2)} 93.333333% {transform: translate(972px,89px) scale(1,1)} 100% {transform: translate(972px,89px) scale(0.500000,0.500000)} }#e9tj3w9yvf2n54_ts {animation: e9tj3w9yvf2n54_ts__ts 3000ms linear infinite normal forwards}@keyframes e9tj3w9yvf2n54_ts__ts { 0% {transform: translate(900px,57px) scale(1.500000,1.500000)} 10% {transform: translate(900px,57px) scale(2,2)} 20% {transform: translate(900px,57px) scale(1.500000,1.500000)} 30% {transform: translate(900px,57px) scale(1,1)} 40% {transform: translate(900px,57px) scale(0.500000,0.500000)} 46.666667% {transform: translate(900px,57px) scale(1,1)} 56.666667% {transform: translate(900px,57px) scale(1.500000,1.500000)} 66.666667% {transform: translate(900px,57px) scale(2,2)} 76.666667% {transform: translate(900px,57px) scale(3,3)} 83.333333% {transform: translate(900px,57px) scale(2,2)} 93.333333% {transform: translate(900px,57px) scale(1,1)} 100% {transform: translate(900px,57px) scale(0.500000,0.500000)} }#e9tj3w9yvf2n55_ts {animation: e9tj3w9yvf2n55_ts__ts 3000ms linear infinite normal forwards}@keyframes e9tj3w9yvf2n55_ts__ts { 0% {transform: translate(1041px,161px) scale(1.500000,1.500000)} 10% {transform: translate(1041px,161px) scale(2,2)} 20% {transform: translate(1041px,161px) scale(1.500000,1.500000)} 30% {transform: translate(1041px,161px) scale(1,1)} 40% {transform: translate(1041px,161px) scale(0.500000,0.500000)} 46.666667% {transform: translate(1041px,161px) scale(1,1)} 56.666667% {transform: translate(1041px,161px) scale(1.500000,1.500000)} 66.666667% {transform: translate(1041px,161px) scale(2,2)} 76.666667% {transform: translate(1041px,161px) scale(3,3)} 83.333333% {transform: translate(1041px,161px) scale(2,2)} 93.333333% {transform: translate(1041px,161px) scale(1,1)} 100% {transform: translate(1041px,161px) scale(0.500000,0.500000)} }]]></style><path id="e9tj3w9yvf2n2" d="M1170.920000,622C1169.123425,635.764253,1166.156001,649.350170,1162.050000,662.610000C1158.110925,675.359132,1153.065058,687.739576,1146.970000,699.610000C1146.970000,782.120000,1080.870000,849,999.320000,849L246.250000,849C197.562349,849.001742,150.809005,829.941454,116,795.900000C116.320000,795.810000,116.650000,795.720000,117,795.650000C186.460000,777.230000,259.750000,770.870000,320,727.120000Q196.850000,706.690000,75.140000,676.410000C70.140000,675.150000,64.460000,673.260000,58.630000,671.280000C58.360000,667.120000,58.210000,662.930000,58.210000,658.710000C57.840000,658.040000,57.480000,657.370000,57.120000,656.710000Q54.740000,652.280000,52.540000,647.710000C37.610000,616.710000,29.080000,580.800000,29.080000,542.480000C29.080000,482.050000,50.310000,427.480000,84.330000,388.990000C313.200000,407.920000,543.440000,399.900000,773,391.820000Q672.320000,371.820000,571.660000,351.760000Q407.490000,319.110000,243.320000,286.420000C313.170000,187.740000,436.440000,122.210000,576.860000,122.210000C675.680000,122.210000,766,154.660000,835.200000,208.280000C860.640000,191.370000,889.930000,181.720000,921.100000,181.720000C986,181.720000,1042.730000,223.450000,1073.540000,285.720000C1073.540000,285.720000,1073.540000,285.720000,1073.540000,285.720000C1089.120000,317.220000,1098.060000,353.960000,1098.060000,393.200000C1098.060000,400.200000,1097.770000,407.200000,1097.200000,414.090000C1097.200000,414.500000,1097.140000,414.900000,1097.100000,415.320000C1118.500000,433.120000,1136.450000,456.420000,1149.510000,483.510000C1149.670000,483.840000,1149.830000,484.170000,1149.980000,484.510000Q1153.410000,491.680000,1156.360000,499.170000L1156.170000,499.170000Q1143.570000,501.960000,1131,504.860000Q995.510000,536.160000,862.530000,580.720000Q824.410000,593.500000,786.530000,607.340000C765.210000,615.140000,737.790000,632.810000,715.690000,634.340000C866.790000,624.200000,1019.100000,638.980000,1169.500000,622.140000Z" transform="matrix(1 0 0 1 -28 -49.53000000000000)" opacity="0.1" fill="rgb(108,99,255)" stroke="none" stroke-width="1"/><path id="e9tj3w9yvf2n3" d="M1172,586.750000C1172,514.820000,1141.940000,451.280000,1096,413.080000Q1096.950000,402.180000,1097,390.970000C1097,274.170000,1017.760000,179.500000,920,179.500000C888.820000,179.500000,859.530000,189.140000,834.090000,206.050000C764.890000,152.430000,674.560000,120,575.740000,120C415,120,276.640000,205.900000,215.280000,329.130000C211.870000,328.900000,208.440000,328.770000,204.980000,328.770000C107.240000,328.770000,27.980000,423.450000,27.980000,540.240000C27.980000,583.180000,38.700000,623.120000,57.100000,656.470000L57.100000,656.470000C57.100000,761.550000,141.290000,846.740000,245.100000,846.740000L998.240000,846.740000C1079.780000,846.740000,1145.880000,779.860000,1145.880000,697.350000L1145.880000,697.350000C1162.440000,665.170000,1172,627.300000,1172,586.750000Z" transform="matrix(1 0 0 1 -28 -49.53000000000000)" opacity="0.1" fill="rgb(108,99,255)" stroke="none" stroke-width="1"/><path id="e9tj3w9yvf2n4" d="M426.720000,592.320000C427.020000,596.320000,428.140000,601.070000,431.910000,602.450000C433.732171,602.965020,435.665453,602.933726,437.470000,602.360000C442.217235,601.333264,446.530895,598.863824,449.820000,595.290000C452.970000,591.630000,454.540000,586.460000,453.220000,581.830000C451.950000,577.410000,448.390000,574.100000,445.880000,570.260000C442.940000,565.770000,442,560.680000,439.960000,555.870000C423.770000,557.420000,425.810000,580.310000,426.720000,592.320000Z" transform="matrix(1 0 0 1 -28 -49.53000000000000)" fill="rgb(251,190,190)" stroke="none" stroke-width="1"/><path id="e9tj3w9yvf2n5" d="M409.710000,399.530000C407.560000,406.530000,415.190000,414.160000,417.650000,421.040000C420.110000,427.920000,423.420000,434.530000,424.740000,441.740000C425.660000,446.690000,425.610000,451.740000,425.960000,456.740000C426.630000,466.190000,428.720000,475.470000,430.960000,484.660000Q435.700000,504.580000,441.120000,524.320000C442.917363,530.303617,444.330246,536.396049,445.350000,542.560000C446.291789,549.225264,446.268213,555.991460,445.280000,562.650000C438.932609,560.747909,432.095483,561.375004,426.200000,564.400000C422.077886,557.165534,419.602403,549.110824,418.950000,540.810000C418.698353,535.888488,418.741764,530.956320,419.080000,526.040000C419.720000,512.130000,413.690000,498.200000,413.490000,484.270000C413.551624,479.445223,413.170021,474.624980,412.350000,469.870000C411.700000,466.600000,411.760000,460.480000,411.050000,457.230000C409.910000,452.050000,414.780000,449.660000,414.510000,444.350000L413.030000,415.350000C412.730000,410.310000,407.630000,404.090000,409.710000,399.530000Z" transform="matrix(1 0 0 1 -28 -49.53000000000000)" fill="rgb(63,61,86)" stroke="none" stroke-width="1"/><path id="e9tj3w9yvf2n6" d="M409.710000,399.530000C407.560000,406.530000,415.190000,414.160000,417.650000,421.040000C420.110000,427.920000,423.420000,434.530000,424.740000,441.740000C425.660000,446.690000,425.610000,451.740000,425.960000,456.740000C426.630000,466.190000,428.720000,475.470000,430.960000,484.660000Q435.700000,504.580000,441.120000,524.320000C442.917363,530.303617,444.330246,536.396049,445.350000,542.560000C446.291789,549.225264,446.268213,555.991460,445.280000,562.650000C438.932609,560.747909,432.095483,561.375004,426.200000,564.400000C422.077886,557.165534,419.602403,549.110824,418.950000,540.810000C418.698353,535.888488,418.741764,530.956320,419.080000,526.040000C419.720000,512.130000,413.690000,498.200000,413.490000,484.270000C413.551624,479.445223,413.170021,474.624980,412.350000,469.870000C411.700000,466.600000,411.760000,460.480000,411.050000,457.230000C409.910000,452.050000,414.780000,449.660000,414.510000,444.350000L413.030000,415.350000C412.730000,410.310000,407.630000,404.090000,409.710000,399.530000Z" transform="matrix(1 0 0 1 -28 -49.53000000000000)" opacity="0.1" fill="rgb(0,0,0)" stroke="none" stroke-width="1"/><path id="e9tj3w9yvf2n7" d="M336.700000,377.080000C337.089447,378.780602,337.877810,380.364183,339,381.700000C349.124296,395.834036,360.660365,408.901323,373.430000,420.700000C374.735848,419.353809,375.828443,417.816082,376.670000,416.140000C382.466716,405.539864,385.364221,393.598006,385.070000,381.520000C379.290000,379.660000,372.730000,377.060000,370.880000,371.280000C369.410000,366.720000,371.380000,361.280000,368.800000,357.220000C365.130000,351.490000,349.550000,350.760000,344.550000,354.920000C341.270000,357.640000,342.440000,360.180000,341.400000,363.860000C340.250000,367.900000,336.060000,372.780000,336.700000,377.080000Z" transform="matrix(1 0 0 1 -28 -49.53000000000000)" fill="rgb(251,190,190)" stroke="none" stroke-width="1"/><path id="e9tj3w9yvf2n8" d="M336.700000,377.080000C337.089447,378.780602,337.877810,380.364183,339,381.700000C349.124296,395.834036,360.660365,408.901323,373.430000,420.700000C374.735848,419.353809,375.828443,417.816082,376.670000,416.140000C382.466716,405.539864,385.364221,393.598006,385.070000,381.520000C379.290000,379.660000,372.730000,377.060000,370.880000,371.280000C369.410000,366.720000,371.380000,361.280000,368.800000,357.220000C365.130000,351.490000,349.550000,350.760000,344.550000,354.920000C341.270000,357.640000,342.440000,360.180000,341.400000,363.860000C340.250000,367.900000,336.060000,372.780000,336.700000,377.080000Z" transform="matrix(1 0 0 1 -28 -49.53000000000000)" opacity="0.1" fill="rgb(0,0,0)" stroke="none" stroke-width="1"/><path id="e9tj3w9yvf2n9" d="M341.900000,839.330000C343.532974,840.494511,345.405067,841.280244,347.380000,841.630000C366.397681,846.316119,386.042014,847.933173,405.570000,846.420000C408.180000,846.210000,411.660000,844.820000,411.020000,842.280000C410.420000,839.910000,407.020000,840.070000,404.720000,839.360000C402.550000,838.700000,400.920000,836.950000,399.300000,835.360000C393.300000,829.360000,386.040000,824.820000,378.880000,820.280000C377.139622,819.025938,375.193776,818.085163,373.130000,817.500000C370.660000,816.940000,368.080000,817.410000,365.580000,817.890000C359.280000,819.080000,347.270000,818.890000,342.280000,823.540000C338.290000,827.240000,337.710000,835.660000,341.900000,839.330000Z" transform="matrix(1 0 0 1 -28 -49.53000000000000)" fill="rgb(63,61,86)" stroke="none" stroke-width="1"/><path id="e9tj3w9yvf2n10" d="M415,834.340000C415,835.890000,415.180000,837.630000,416.360000,838.620000C417.303564,839.275766,418.444201,839.586528,419.590000,839.500000C427.885007,839.438881,435.477351,834.830478,439.360000,827.500000L467.360000,824.230000C472.660000,823.610000,478.060000,822.960000,482.930000,820.770000C488.680000,818.170000,493.270000,813.600000,497.720000,809.130000C498.503040,808.464250,499.099261,807.606104,499.450000,806.640000C499.910000,804.880000,498.570000,803.030000,496.880000,802.330000C495.135575,801.749933,493.267866,801.646363,491.470000,802.030000C477.800000,803.920000,464.080000,810.030000,450.700000,806.630000C447.430000,805.800000,444.180000,804.390000,440.810000,804.630000C438.994796,804.861417,437.218911,805.335659,435.530000,806.040000C431.180000,807.640000,418.170000,809.910000,415.290000,813.590000C412.410000,817.270000,415,829.940000,415,834.340000Z" transform="matrix(1 0 0 1 -28 -49.53000000000000)" fill="rgb(63,61,86)" stroke="none" stroke-width="1"/><path id="e9tj3w9yvf2n11" d="M344.190000,521.690000C340.190000,527.920000,331.760000,529.280000,325.870000,533.750000C316.820000,540.620000,315.290000,553.420000,314.770000,564.750000C314.420000,572.590000,314.200000,580.550000,315.940000,588.210000C317.160000,593.540000,319.300000,598.620000,320.940000,603.850000C324.440000,615.220000,325.420000,627.200000,325.940000,639.080000C327.310000,669.080000,326.090000,699.270000,329.940000,729.080000C331.050000,737.610000,332.560000,746.080000,333.400000,754.640000C336.160000,782.960000,331.480000,812.160000,339.070000,839.580000C347.257351,830.702067,358.724744,825.566497,370.800000,825.370000C373.300000,825.370000,375.910000,825.520000,378.210000,824.510000C380.510000,823.500000,382.330000,820.820000,381.370000,818.510000C380.794533,817.502287,380.124873,816.551371,379.370000,815.670000C376.060000,810.670000,381.680000,803.600000,379.280000,798.090000C378.350000,795.970000,376.340000,794.400000,375.750000,792.170000C375.120000,789.750000,376.340000,787.270000,376.680000,784.790000C377.360000,779.790000,374.490000,775.130000,373,770.340000C370.750000,763.090000,371.650000,755.340000,372.430000,747.750000C375.009012,722.950290,376.140930,698.021384,375.820000,673.090000C375.610000,656.220000,374.770000,638.990000,379.630000,622.830000C388.721726,631.404223,396.510792,641.261839,402.750000,652.090000C406.630000,658.700000,409.980000,665.760000,411.270000,673.320000C412.210000,678.870000,412.030000,684.540000,411.840000,690.160000Q410.400000,733.310000,408.950000,776.460000C408.370000,793.860000,407.870000,811.770000,413.900000,828.090000C429.230000,819.930000,444.900000,812.090000,460.230000,803.880000C459.980000,798.230000,452.380000,796.160000,449.580000,791.250000C448.575985,789.195029,448.030080,786.946579,447.980000,784.660000C446.040000,761.280000,450.810000,737.920000,455.220000,714.880000C456.900000,706.100000,458.540000,697.250000,458.530000,688.320000C458.530000,674.140000,454.380000,660.320000,450.090000,646.810000C445.550000,632.500000,440.800000,618.250000,436.090000,604C433.090000,594.850000,429.990000,585.690000,426.170000,576.830000C422.570000,568.450000,418.290000,560.360000,415.220000,551.830000C410.290000,538.050000,408.600000,523.360000,406.950000,508.830000C386.110000,512.920000,365,517.530000,344.190000,521.690000Z" transform="matrix(1 0 0 1 -28 -49.53000000000000)" fill="rgb(47,46,65)" stroke="none" stroke-width="1"/><circle id="e9tj3w9yvf2n12" r="29.220000" transform="matrix(1 0 0 1 326.66000000000003 288.63999999999999)" fill="rgb(251,190,190)" stroke="none" stroke-width="1"/><path id="e9tj3w9yvf2n13" d="M365.590000,408.820000L363.470000,393C363.480261,389.432189,361.538986,386.144300,358.410000,384.430000L338.050000,369.550000C337.050000,368.790000,335.670000,367.990000,334.510000,368.550000C333.789415,369.035621,333.284261,369.780813,333.100000,370.630000C329.880000,380.130000,331.870000,390.490000,332.990000,400.460000C333.940000,408.770000,334.260000,417.140000,334.580000,425.460000C335.025054,433.017415,335.005017,440.595045,334.520000,448.150000C333.420000,461.230000,329.520000,474.390000,332.130000,487.260000C333.850000,495.770000,336.880000,503.680000,337.590000,512.340000C338.080000,518.340000,337.930000,524.440000,339.830000,530.120000C346.830000,527.120000,354.750000,527.450000,362.360000,527.850000L380.830000,528.850000C383.391745,529.085376,385.972074,529.024979,388.520000,528.670000C391.367576,528.074666,394.095318,527.006554,396.590000,525.510000C403.147611,521.806469,408.881091,516.804560,413.440000,510.810000C410.320000,495.740000,413.350000,480.180000,411.270000,464.930000C410.080000,456.140000,407.100000,447.670000,405.700000,438.930000C403.980000,428.140000,404.650000,416.930000,401.560000,406.450000C399.810360,401.135345,397.588146,395.988108,394.920000,391.070000C392.215244,385.478333,387.750097,380.928873,382.210000,378.120000C381.182335,377.569324,380.035883,377.277562,378.870000,377.270000C375.930000,377.440000,374.110000,380.560000,373.290000,383.400000C372.290000,386.800000,372.010000,390.400000,371.230000,393.810000C370.110000,398.800000,368.490000,404.610000,365.590000,408.820000Z" transform="matrix(1 0 0 1 -28 -49.53000000000000)" fill="rgb(108,99,255)" stroke="none" stroke-width="1"/><path id="e9tj3w9yvf2n14" d="M305.700000,597.320000C309.590000,601.440000,316.700000,600.430000,321.220000,597.040000C331.060000,589.670000,331.970000,575.560000,332.510000,563.280000C332.710000,558.880000,333.010000,554.280000,335.080000,550.420000C338.240000,544.470000,344.790000,541.330000,350.230000,537.340000C363.130000,527.900000,370.700000,512.340000,372.970000,496.560000C375.240000,480.780000,372.630000,464.560000,368.270000,449.190000C360.730000,422.620000,348.030000,397.850000,335.140000,373.430000C334.753528,372.520699,334.136551,371.727935,333.350000,371.130000C330.730000,369.510000,327.890000,372.720000,326.090000,375.230000C320.020000,383.730000,310.020000,388.290000,300.860000,393.320000C291.700000,398.350000,282.340000,405.050000,279.570000,415.120000C277.710000,421.870000,279.160000,429.050000,280.570000,435.900000C281.980000,442.750000,287,448.190000,290.690000,454C295.015875,460.364440,298.914448,467.009051,302.360000,473.890000C303.660053,476.455243,304.666422,479.159022,305.360000,481.950000C305.964734,485.247531,306.229454,488.598418,306.150000,491.950000C306.360000,512.670000,306.570000,533.460000,304.070000,554.030000C302.650000,565.670000,300.370000,577.350000,301.410000,589.030000C301.660000,592.170000,303.480000,595,305.700000,597.320000Z" transform="matrix(1 0 0 1 -28 -49.53000000000000)" fill="rgb(63,61,86)" stroke="none" stroke-width="1"/><path id="e9tj3w9yvf2n15" d="M330.400000,558.700000C334.560000,560.560000,338.770000,562.490000,343.270000,563.230000C347.770000,563.970000,352.700000,563.370000,356.270000,560.580000C359.840000,557.790000,361.720000,552.510000,359.680000,548.430000C362.887140,548.532038,366.097310,548.378217,369.280000,547.970000C371.110000,547.740000,373.330000,547.040000,373.610000,545.220000C373.930000,543.100000,371.370000,541.820000,369.300000,541.220000L358.140000,538.150000C352.895295,536.202408,347.207815,535.772642,341.730000,536.910000L324.730000,539.510000C324.278617,539.545040,323.841018,539.681790,323.450000,539.910000C322.942494,540.346061,322.591347,540.935988,322.450000,541.590000C321.630000,544.180000,317.840000,551.420000,319.140000,554C320.300000,556.210000,328.070000,557.530000,330.400000,558.700000Z" transform="matrix(1 0 0 1 -28 -49.53000000000000)" fill="rgb(251,190,190)" stroke="none" stroke-width="1"/><path id="e9tj3w9yvf2n16" d="M437,569.660000C434.943049,574.260438,430.980345,577.733739,426.150000,579.170000C425.109104,579.532902,423.989033,579.605499,422.910000,579.380000C420.910000,578.820000,419.810000,576.730000,418.980000,574.830000C399.180000,529.750000,400.290000,478.440000,387.690000,430.830000C383.950000,416.700000,378.950000,402.500000,379.860000,387.910000C380.020000,385.300000,380.570000,382.360000,382.750000,380.910000C384.690000,379.610000,387.330000,379.960000,389.450000,380.910000C391.570000,381.860000,393.450000,383.410000,395.450000,384.470000C398.760000,386.160000,402.610000,386.640000,405.790000,388.550000C410.510000,391.380000,412.930000,396.790000,415.040000,401.870000C419.550000,412.710000,424.040000,423.870000,424.390000,435.630000C425.160000,458.470000,415.030000,480.420000,420.300000,502.630000C421.350000,507.030000,422.900000,511.300000,424.380000,515.570000C429.678033,530.889218,434.019721,546.522632,437.380000,562.380000C437.930000,565.100000,438.050000,567.170000,437,569.660000Z" transform="matrix(1 0 0 1 -28 -49.53000000000000)" fill="rgb(63,61,86)" stroke="none" stroke-width="1"/><path id="e9tj3w9yvf2n17" d="M335.710000,340.740000C337.460000,337.910000,339.890000,335.420000,340.830000,332.230000C341.500000,329.960000,341.360000,327.500000,342.170000,325.230000C344.170000,319.750000,351.110000,317.730000,356.860000,318.670000C362.610000,319.610000,367.780000,322.670000,373.400000,324.200000C376.510000,325.060000,380.830000,324.800000,381.710000,321.690000C382.290000,319.630000,380.900000,317.590000,379.580000,315.900000L363,294.740000C360.820000,295.300000,358.380000,295.820000,356.400000,294.740000C355.260000,294.110000,354.400000,293,353.130000,292.640000C349.680000,291.640000,346.790000,296.950000,343.330000,296.030000C342.330000,295.770000,341.540000,295.030000,340.540000,294.950000C337.750000,294.720000,336.700000,299.340000,333.910000,299.570000C332.750000,299.670000,331.630000,298.930000,330.480000,299.040000C329.451008,299.247394,328.531379,299.819055,327.890000,300.650000C322.340000,306.540000,320.090000,314.990000,320.390000,323.070000C320.690000,331.150000,319.300000,338.990000,322.390000,346.450000C323.750000,349.710000,326.510000,353.550000,329.860000,352.450000C329.860000,348.050000,333.960000,343.660000,334.010000,339.260000" transform="matrix(1 0 0 1 -28 -49.53000000000000)" fill="rgb(47,46,65)" stroke="none" stroke-width="1"/><g id="e9tj3w9yvf2n18" opacity="0.1"><path id="e9tj3w9yvf2n19" d="M392.170000,636.520000C386.223230,626.680606,378.966827,617.695046,370.600000,609.810000C365.740000,625.970000,366.600000,643.200000,366.790000,660.070000C367.110930,685.001384,365.979012,709.930290,363.400000,734.730000C362.610000,742.280000,361.720000,750.070000,363.970000,757.320000C365.460000,762.110000,368.330000,766.790000,367.650000,771.770000C367.310000,774.250000,366.090000,776.770000,366.720000,779.150000C367.310000,781.380000,369.320000,782.950000,370.250000,785.070000C372.650000,790.580000,367.030000,797.630000,370.340000,802.650000C371.094873,803.531371,371.764533,804.482287,372.340000,805.490000C373.340000,807.810000,371.480000,810.490000,369.180000,811.490000C366.880000,812.490000,364.270000,812.320000,361.770000,812.350000C352.305865,812.508711,343.142780,815.702120,335.630000,821.460000C336.288614,827.573664,337.428822,833.625797,339.040000,839.560000C347.227351,830.682067,358.694744,825.546497,370.770000,825.350000C373.270000,825.350000,375.880000,825.500000,378.180000,824.490000C380.480000,823.480000,382.300000,820.800000,381.340000,818.490000C380.764533,817.482287,380.094873,816.531371,379.340000,815.650000C376.030000,810.650000,381.650000,803.580000,379.250000,798.070000C378.320000,795.950000,376.310000,794.380000,375.720000,792.150000C375.090000,789.730000,376.310000,787.250000,376.650000,784.770000C377.330000,779.770000,374.460000,775.110000,372.970000,770.320000C370.720000,763.070000,371.610000,755.320000,372.400000,747.730000C374.979012,722.930290,376.110930,698.001384,375.790000,673.070000C375.580000,656.200000,374.740000,638.970000,379.600000,622.810000C384.126660,627.059519,388.328430,631.642357,392.170000,636.520000Z" transform="matrix(1 0 0 1 -28 -49.53000000000000)" fill="rgb(0,0,0)" stroke="none" stroke-width="1"/></g><g id="e9tj3w9yvf2n20" opacity="0.1"><path id="e9tj3w9yvf2n21" d="M320.420000,324C320.420000,322.630000,320.420000,321.250000,320.420000,319.860000C320.360000,320.930000,320.360000,322,320.420000,323.060000C320.410000,323.400000,320.410000,323.710000,320.420000,324Z" transform="matrix(1 0 0 1 -28 -49.53000000000000)" fill="rgb(0,0,0)" stroke="none" stroke-width="1"/><path id="e9tj3w9yvf2n22" d="M373.400000,320.250000C367.780000,318.710000,362.600000,315.670000,356.860000,314.720000C351.120000,313.770000,344.150000,315.800000,342.170000,321.280000C341.360000,323.500000,341.500000,325.960000,340.830000,328.280000C339.890000,331.470000,337.460000,333.960000,335.710000,336.790000L334.060000,335.330000C334.010000,339.730000,329.960000,344.120000,329.910000,348.520000C326.560000,349.610000,323.800000,345.770000,322.440000,342.520000C321.037558,338.932910,320.331630,335.111396,320.360000,331.260000C320.270000,336.490000,320.360000,341.580000,322.440000,346.520000C323.800000,349.780000,326.560000,353.620000,329.910000,352.520000C329.910000,348.120000,334.010000,343.730000,334.060000,339.330000L335.710000,340.790000C337.460000,337.960000,339.890000,335.470000,340.830000,332.280000C341.500000,330.010000,341.360000,327.550000,342.170000,325.280000C344.170000,319.800000,351.110000,317.780000,356.860000,318.720000C362.610000,319.660000,367.780000,322.720000,373.400000,324.250000C376.510000,325.110000,380.830000,324.850000,381.710000,321.740000C381.962401,320.690393,381.823755,319.584783,381.320000,318.630000C379.930000,320.880000,376.180000,321,373.400000,320.250000Z" transform="matrix(1 0 0 1 -28 -49.53000000000000)" fill="rgb(0,0,0)" stroke="none" stroke-width="1"/></g><path id="e9tj3w9yvf2n23" d="M278.890000,444.910000C278.036680,451.009969,276.807677,457.051454,275.210000,463L268.210000,491.530000C267.460000,494.530000,266.710000,497.690000,267.040000,500.800000C267.500000,504.990000,269.880000,508.700000,272.290000,512.160000C285.993542,531.819752,302.728027,549.182033,321.870000,563.600000C320.760000,557.900000,324.710000,552.600000,328.420000,548.120000C332.130000,543.640000,335.750000,539.350000,340.600000,536.450000Q322.380000,519.330000,305.340000,501C304.142998,499.811890,303.113523,498.466171,302.280000,497C299.540000,491.710000,302.280000,485.390000,304.660000,479.930000C312.190000,462.540000,315.750000,442.800000,310.920000,424.480000C309.100000,417.590000,305.920000,410.710000,300.130000,406.480000C297.600000,404.630000,294.130000,403.380000,291.370000,404.770000C290.192974,405.451383,289.171174,406.371003,288.370000,407.470000C279.380000,418.460000,280.450000,431.610000,278.890000,444.910000Z" transform="matrix(1 0 0 1 -28 -49.53000000000000)" fill="rgb(63,61,86)" stroke="none" stroke-width="1"/><ellipse id="e9tj3w9yvf2n24" rx="29.240000" ry="5.620000" transform="matrix(1 0 0 1 256.75999999999999 793.24000000000001)" fill="rgb(108,99,255)" stroke="none" stroke-width="1"/><ellipse id="e9tj3w9yvf2n25" rx="3.400000" ry="4.460000" transform="matrix(1 0 0 1 256.26999999999998 790.85000000000002)" fill="rgb(63,61,86)" stroke="none" stroke-width="1"/><ellipse id="e9tj3w9yvf2n26" rx="3.400000" ry="4.460000" transform="matrix(1 0 0 1 256.26999999999998 785.39999999999998)" fill="rgb(63,61,86)" stroke="none" stroke-width="1"/><ellipse id="e9tj3w9yvf2n27" rx="3.400000" ry="4.460000" transform="matrix(1 0 0 1 256.26999999999998 779.96000000000004)" fill="rgb(63,61,86)" stroke="none" stroke-width="1"/><ellipse id="e9tj3w9yvf2n28" rx="3.400000" ry="4.460000" transform="matrix(1 0 0 1 256.26999999999998 774.50999999999999)" fill="rgb(63,61,86)" stroke="none" stroke-width="1"/><ellipse id="e9tj3w9yvf2n29" rx="3.400000" ry="4.460000" transform="matrix(1 0 0 1 256.26999999999998 769.05999999999995)" fill="rgb(63,61,86)" stroke="none" stroke-width="1"/><ellipse id="e9tj3w9yvf2n30" rx="3.400000" ry="4.460000" transform="matrix(1 0 0 1 256.26999999999998 763.62000000000000)" fill="rgb(63,61,86)" stroke="none" stroke-width="1"/><ellipse id="e9tj3w9yvf2n31" rx="3.400000" ry="4.460000" transform="matrix(1 0 0 1 256.26999999999998 758.16999999999996)" fill="rgb(63,61,86)" stroke="none" stroke-width="1"/><path id="e9tj3w9yvf2n32" d="M297,770.430000C297.467520,769.837849,297.891944,769.212910,298.270000,768.560000L289.330000,767.090000L299,767.160000C300.873259,763.078656,300.985362,758.406489,299.310000,754.240000L286.310000,760.970000L298.310000,752.180000C295.262086,746.879359,289.505455,743.728711,283.397868,744.018480C277.290282,744.308248,271.857795,747.989751,269.325409,753.555145C266.793023,759.120538,267.586171,765.634853,271.380000,770.430000C270.650849,771.358057,270.027025,772.364224,269.520000,773.430000L281.130000,779.430000L268.750000,775.280000C266.984021,780.499936,267.973271,786.258648,271.380000,790.590000C266.116546,797.275484,266.876886,806.883925,273.126324,812.658365C279.375761,818.432806,289.014239,818.432806,295.263676,812.658365C301.513114,806.883925,302.273454,797.275484,297.010000,790.590000C301.663984,784.675787,301.663984,776.344213,297.010000,770.430000Z" transform="matrix(1 0 0 1 -28 -49.53000000000000)" fill="rgb(108,99,255)" stroke="none" stroke-width="1"/><path id="e9tj3w9yvf2n33" d="M267.890000,780.510000C267.882827,784.167510,269.112789,787.719951,271.380000,790.590000C266.116546,797.275484,266.876886,806.883925,273.126324,812.658365C279.375761,818.432806,289.014239,818.432806,295.263676,812.658365C301.513114,806.883925,302.273454,797.275484,297.010000,790.590000C299.200000,787.820000,267.890000,778.680000,267.890000,780.510000Z" transform="matrix(1 0 0 1 -28 -49.53000000000000)" opacity="0.1" fill="rgb(0,0,0)" stroke="none" stroke-width="1"/><ellipse id="e9tj3w9yvf2n34" rx="40.210000" ry="6.800000" transform="matrix(1 0 0 1 920.19000000000005 794.13999999999999)" fill="rgb(108,99,255)" stroke="none" stroke-width="1"/><path id="e9tj3w9yvf2n35" d="M964.820000,832.550000C966.653243,831.056285,967.988984,829.040467,968.650000,826.770000C969.150000,824.470000,968.170000,821.710000,965.970000,820.870000C963.510000,819.930000,960.880000,821.640000,958.890000,823.360000C956.900000,825.080000,954.610000,827.050000,952.010000,826.680000C954.735285,824.204241,955.964683,820.481895,955.250000,816.870000C955.136210,816.134263,954.825190,815.443107,954.350000,814.870000C952.980000,813.410000,950.510000,814.040000,948.870000,815.190000C943.670000,818.840000,942.220000,825.910000,942.190000,832.260000C941.670000,829.970000,942.110000,827.580000,942.100000,825.260000C942.090000,822.940000,941.440000,820.260000,939.450000,819.040000C938.223535,818.376755,936.843712,818.049047,935.450000,818.090000C933.120000,818,930.510000,818.240000,928.920000,819.950000C926.920000,822.070000,927.450000,825.630000,929.170000,827.950000C930.890000,830.270000,933.520000,831.760000,935.940000,833.370000C937.875902,834.524273,939.526796,836.099971,940.770000,837.980000C940.919817,838.242756,941.040531,838.521069,941.130000,838.810000L955.790000,838.810000C959.068681,837.140353,962.106259,835.034568,964.820000,832.550000Z" transform="matrix(1 0 0 1 -28 -49.53000000000000)" fill="rgb(108,99,255)" stroke="none" stroke-width="1"/><g id="e9tj3w9yvf2n36_to" transform="translate(482.654973,856.330672)"><g id="e9tj3w9yvf2n36" transform="translate(-797.233032,-322.569160)"><polygon id="e9tj3w9yvf2n37" points="733.750000,415.980000 734.620000,414.040000 733.460000,413.520000 732.590000,415.460000 728.040000,420.410000 733.090000,422.670000 733.750000,415.980000" fill="rgb(63,61,86)" stroke="none" stroke-width="1"/><polygon id="e9tj3w9yvf2n38" points="738.790000,418.300000 739.680000,416.310000 738.490000,415.770000 737.600000,417.760000 732.930000,422.840000 738.110000,425.160000 738.790000,418.300000" fill="rgb(63,61,86)" stroke="none" stroke-width="1"/><polygon id="e9tj3w9yvf2n39" points="743.850000,420.500000 744.720000,418.560000 743.550000,418.040000 742.680000,419.980000 738.130000,424.930000 743.180000,427.190000 743.850000,420.500000" fill="rgb(63,61,86)" stroke="none" stroke-width="1"/><polygon id="e9tj3w9yvf2n40" points="779.800000,436.660000 780.690000,434.670000 779.500000,434.130000 778.610000,436.120000 773.940000,441.200000 779.120000,443.520000 779.800000,436.660000" fill="rgb(63,61,86)" stroke="none" stroke-width="1"/><polygon id="e9tj3w9yvf2n41" points="784.980000,438.980000 785.870000,436.990000 784.680000,436.450000 783.780000,438.440000 779.120000,443.520000 784.300000,445.840000 784.980000,438.980000" fill="rgb(63,61,86)" stroke="none" stroke-width="1"/><polygon id="e9tj3w9yvf2n42" points="790.150000,441.290000 791.050000,439.300000 789.850000,438.770000 788.960000,440.760000 784.300000,445.840000 789.470000,448.160000 790.150000,441.290000" fill="rgb(63,61,86)" stroke="none" stroke-width="1"/><polygon id="e9tj3w9yvf2n43" points="756.310000,426.140000 757.200000,424.150000 756.010000,423.610000 755.120000,425.610000 750.450000,430.690000 755.630000,433 756.310000,426.140000" fill="rgb(63,61,86)" stroke="none" stroke-width="1"/><polygon id="e9tj3w9yvf2n44" points="761.490000,428.460000 762.380000,426.470000 761.180000,425.930000 760.290000,427.920000 755.630000,433 760.800000,435.320000 761.490000,428.460000" fill="rgb(63,61,86)" stroke="none" stroke-width="1"/><polygon id="e9tj3w9yvf2n45" points="766.660000,430.770000 767.550000,428.780000 766.360000,428.250000 765.470000,430.240000 760.800000,435.320000 765.980000,437.640000 766.660000,430.770000" fill="rgb(63,61,86)" stroke="none" stroke-width="1"/><path id="e9tj3w9yvf2n46" d="M841.430000,334.200000C844.350000,327.280000,841.520000,311.540000,837.170000,309.590000C832.820000,307.640000,819.580000,316.190000,816.360000,322.980000L816.160000,322.880000L754.480000,460.640000L779.760000,472L841.440000,334.200000Z" transform="matrix(1 0 0 1 -28 -49.53000000000000)" fill="rgb(236,236,243)" stroke="none" stroke-width="1"/><path id="e9tj3w9yvf2n47" d="M887.620000,354.880000C890.530000,347.960000,887.710000,332.220000,883.350000,330.270000C878.990000,328.320000,865.770000,336.870000,862.550000,343.660000L862.340000,343.560000L800.660000,481.320000L826,492.640000L887.680000,354.880000Z" transform="matrix(1 0 0 1 -28 -49.53000000000000)" fill="rgb(236,236,243)" stroke="none" stroke-width="1"/><path id="e9tj3w9yvf2n48" d="M892.890000,280.120000C897.240000,270,896.890000,248.640000,892.570000,246.690000C888.250000,244.740000,872.470000,258.910000,867.820000,268.900000L867.620000,268.800000L777.170000,470.800000L802.450000,482.120000L892.900000,280.120000Z" transform="matrix(1 0 0 1 -28 -49.53000000000000)" fill="rgb(255,255,255)" stroke="none" stroke-width="1"/><rect id="e9tj3w9yvf2n49" width="5.230000" height="11.340000" rx="2.620000" ry="2.620000" transform="matrix(0.91269200000000 0.40864900000000 -0.40864900000000 0.91269200000000 858.36994843999992 204.88861917999998)" fill="rgb(63,61,86)" stroke="none" stroke-width="1"/></g></g><path id="e9tj3w9yvf2n50" d="M690.170000,497.830000L715.850000,501.290000C720,501.850000,724.420000,502.370000,728.230000,500.630000C734.540000,497.740000,736.940000,489.760000,742.750000,485.980000C749.300000,481.710000,758.870000,484.420000,763.440000,490.760000C764.640000,492.440000,765.590000,494.350000,767.230000,495.600000C773.800000,500.600000,784.230000,491.200000,791.110000,495.840000C794.540000,498.170000,795.620000,503.380000,799.540000,504.760000C802.130000,505.670000,804.990000,504.490000,807.730000,504.710000C814.580000,505.260000,817.670000,514.050000,816.230000,520.770000C814.790000,527.490000,810.630000,533.430000,809.510000,540.200000C808.390000,546.970000,812.450000,555.610000,819.300000,555.200000" transform="matrix(1 0 0 1 -28 -49.53000000000000)" opacity="0.3" fill="rgb(255,255,255)" stroke="none" stroke-width="1"/><g id="e9tj3w9yvf2n51_ts" transform="translate(815,77) scale(1.500000,1.500000)"><circle id="e9tj3w9yvf2n51" r="12" transform="translate(0,0)" opacity="0.1" fill="rgb(108,99,255)" stroke="none" stroke-width="1"/></g><g id="e9tj3w9yvf2n52_ts" transform="translate(960,12) scale(1.500000,1.500000)"><circle id="e9tj3w9yvf2n52" r="12" transform="translate(0,0)" opacity="0.1" fill="rgb(108,99,255)" stroke="none" stroke-width="1"/></g><g id="e9tj3w9yvf2n53_ts" transform="translate(972,89) scale(1.500000,1.500000)"><circle id="e9tj3w9yvf2n53" r="12" transform="translate(0,0)" opacity="0.1" fill="rgb(108,99,255)" stroke="none" stroke-width="1"/></g><g id="e9tj3w9yvf2n54_ts" transform="translate(900,57) scale(1.500000,1.500000)"><circle id="e9tj3w9yvf2n54" r="12" transform="translate(0,0)" opacity="0.1" fill="rgb(108,99,255)" stroke="none" stroke-width="1"/></g><g id="e9tj3w9yvf2n55_ts" transform="translate(1041,161) scale(1.500000,1.500000)"><circle id="e9tj3w9yvf2n55" r="12" transform="translate(0,0)" opacity="0.1" fill="rgb(108,99,255)" stroke="none" stroke-width="1"/></g></svg>